<?xml version="1.0" standalone="no"?>
<!DOCTYPE svg PUBLIC "-//W3C//DTD SVG 1.1//EN" "http://www.w3.org/Graphics/SVG/1.1/DTD/svg11.dtd" >
<!--
2013-9-30: Created.
-->
<svg>
<metadata>
Created by iconfont
</metadata>
<defs>

<font id="iconfont" horiz-adv-x="1024" >
  <font-face
    font-family="iconfont"
    font-weight="500"
    font-stretch="normal"
    units-per-em="1024"
    ascent="896"
    descent="-128"
  />
    <missing-glyph />
    
    <glyph glyph-name="bda-tree-dbtable" unicode="&#58953;" d="M704 832a128 128 0 0 0 128-128h-64a64 64 0 0 1-56.512 63.552L704 768H192a64 64 0 0 1-63.552-56.512L128 704v-512a64 64 0 0 1 56.512-63.552L192 128v-64a128 128 0 0 0-128 128V704a128 128 0 0 0 128 128h512zM832 704a128 128 0 0 0 128-128v-512a128 128 0 0 0-128-128H320a128 128 0 0 0-128 128V576a128 128 0 0 0 128 128h512z m0-64H320a64 64 0 0 1-63.552-56.512L256 576v-512a64 64 0 0 1 56.512-63.552L320 0h512a64 64 0 0 1 63.552 56.512L896 64V576a64 64 0 0 1-56.512 63.552L832 640zM704 160a32 32 0 0 0 5.76-63.488L704 96H384a32 32 0 0 0-5.76 63.488L384 160h320zM768 544a32 32 0 0 0 5.76-63.488L768 480H384a32 32 0 0 0-5.76 63.488L384 544h384zM576 352a32 32 0 0 0 5.76-63.488L576 288H384a32 32 0 0 0-5.76 63.488L384 352h192z"  horiz-adv-x="1024" />

    
    <glyph glyph-name="bda-loading" unicode="&#58933;" d="M512 746.666667m-64 0a64 64 0 1 1 128 0 64 64 0 1 1-128 0ZM726.314667 576.981333a74.666667 74.666667 0 1 1 105.6 105.6 74.666667 74.666667 0 0 1-105.6-105.6zM874.666667 384m0 85.333333a85.333333 85.333333 0 1 1 0-170.666666 85.333333 85.333333 0 1 1 0 170.666666ZM711.232 206.10133299999995a96 96 0 1 1 135.765333-135.765333 96 96 0 0 1-135.765333 135.765333zM512 21.33333300000004m106.666667 0a106.666667 106.666667 0 1 1-213.333334 0 106.666667 106.666667 0 1 1 213.333334 0ZM255.603503 127.57333300000005m45.254834-45.254834a64 64 0 1 1-90.509668 90.509668 64 64 0 1 1 90.509668-90.509668ZM149.333333 384m0-64a64 64 0 1 1 0 128 64 64 0 1 1 0-128ZM255.543163 640.426667m-45.254834-45.254834a64 64 0 1 1 90.509668 90.509668 64 64 0 1 1-90.509668-90.509668Z"  horiz-adv-x="1024" />

    
    <glyph glyph-name="bda-sys-setting" unicode="&#59080;" d="M934.4 384v32l89.6 51.2-185.6 313.6-89.6-51.2c-19.2 12.8-38.4 25.6-57.6 32V870.4H332.8V768c-25.6-12.8-44.8-19.2-64-32l-89.6 51.2-179.2-320 89.6-51.2v-64L0 300.79999999999995l179.2-313.6 89.6 51.2c19.2-12.8 38.4-25.6 57.6-32v-102.4h364.8V0c19.2 12.8 38.4 19.2 57.6 32l89.6-51.2 185.6 320-89.6 51.2V384z m-128 25.6v-51.2l-6.4-83.2 51.2-25.6-57.6-96-44.8 25.6-64-44.8c-12.8-6.4-25.6-19.2-38.4-25.6l-70.4-32v-57.6H460.8v57.6L384 115.20000000000005c-12.8 6.4-25.6 12.8-44.8 25.6l-64 44.8-44.8-25.6-57.6 96 51.2 25.6-6.4 76.8V384v25.6l6.4 83.2-51.2 19.2 51.2 96 44.8-25.6 64 44.8c19.2 6.4 38.4 19.2 51.2 25.6l70.4 32v57.6h108.8v-57.6l76.8-32c12.8-6.4 25.6-12.8 38.4-25.6l64-44.8 44.8 25.6 57.6-96-44.8-32 6.4-70.4zM512 576C403.2 576 320 492.8 320 384s83.2-192 192-192 192 83.2 192 192-83.2 192-192 192z m0-256c-38.4 0-64 32-64 64s25.6 64 64 64 64-25.6 64-64-25.6-64-64-64z"  horiz-adv-x="1024" />

    
    <glyph glyph-name="bda-sys-people" unicode="&#59082;" d="M723.2 337.91999999999996A314.88 314.88 0 0 1 832 576 320 320 0 0 1 192 576a314.88 314.88 0 0 1 108.8-238.08A512 512 0 0 1 0-128h128a384 384 0 0 0 768 0h128a512 512 0 0 1-300.8 465.92zM320 576a192 192 0 1 0 192-192 192 192 0 0 0-192 192z"  horiz-adv-x="1024" />

    
    <glyph glyph-name="bda-sys-clothes" unicode="&#59083;" d="M827.52 768L896 664.96v-186.24l-37.12 7.68L704 520.3199999999999V0H320V532.48l-159.36-40.32-32.64-8.32V664.96L196.48 768h29.44l101.12-50.56 26.88-13.44h316.16l26.88 13.44L798.08 768h29.44M896 896h-128l-128-64H384L256 896H128L0 704v-384l192 48V-128h640V361.6L1024 320V704l-128 192z"  horiz-adv-x="1024" />

    
    <glyph glyph-name="bda-sys-block" unicode="&#59084;" d="M512 896L0 640v-512l512-256 512 256V640z m297.6-291.84L512 455.68 214.4 604.1600000000001 512 752.64zM128 504.32l320-160v-296.96l-320 160z m448-456.96V344.32000000000005l320 160v-296.96z"  horiz-adv-x="1024" />

    
    <glyph glyph-name="bda-sys-blocks" unicode="&#59085;" d="M32 416h448v448h-448v-448z m128 320h192v-192h-192v192zM32-96h448v448h-448v-448z m128 320h192v-192h-192v192zM544 864v-448h448v448h-448z m320-320h-192v192h192v-192zM544-96h448v448h-448v-448z m128 320h192v-192h-192v192z"  horiz-adv-x="1024" />

    
    <glyph glyph-name="bda-sys-note" unicode="&#59086;" d="M32 864v-960h960V864H32z m832-832h-704v704h704v-704zM224 672h512v-128h-512zM224 480h256v-128h-256zM224 288h384v-128h-384z"  horiz-adv-x="1024" />

    
    <glyph glyph-name="bda-hover-close" unicode="&#59198;" d="M512 768a384 384 0 1 0 0-768A384 384 0 0 0 512 768z m0-64a320 320 0 1 1 0-640A320 320 0 0 1 512 704zM421.504 519.744l90.432-90.432L602.496 519.6800000000001a32 32 0 1 0 45.248-45.248L557.248 384.064l90.496-90.56a32 32 0 1 0-45.248-45.248L512 338.75199999999995l-90.432-90.496a32 32 0 1 0-45.248 45.248L466.688 384 376.32 474.496a32 32 0 1 0 45.248 45.248z"  horiz-adv-x="1024" />

    
    <glyph glyph-name="bda-search2" unicode="&#59203;" d="M480 832a416 416 0 0 0 315.904-686.656l154.752-154.688a32 32 0 0 0-40.832-48.96l-4.48 3.648-154.688 154.752A416 416 0 1 0 480 832z m0-64a352 352 0 1 1 0-704 352 352 0 0 1 0 704z"  horiz-adv-x="1024" />

    
    <glyph glyph-name="bda-time" unicode="&#59204;" d="M512 832a448 448 0 1 0 0-896A448 448 0 0 0 512 832z m0-64a384 384 0 1 1 0-768A384 384 0 0 1 512 768z m0-160a32 32 0 0 0 31.488-26.24L544 576v-178.752l150.656-150.592a32 32 0 0 0-40.832-48.96l-4.48 3.648-160 160-0.704 0.832a32.192 32.192 0 0 0-2.112 2.496l2.816-3.328a32.128 32.128 0 0 0-8.832 16.896l-0.192 1.024a32.192 32.192 0 0 0-0.32 3.968V576a32 32 0 0 0 32 32z"  horiz-adv-x="1024" />

    
    <glyph glyph-name="bda-date2" unicode="&#59205;" d="M672 832a32 32 0 0 0 31.488-26.24L704 800V768h128a128 128 0 0 0 128-128v-576a128 128 0 0 0-128-128H192a128 128 0 0 0-128 128V640a128 128 0 0 0 128 128h128v32a32 32 0 0 0 63.488 5.76L384 800V768h256v32a32 32 0 0 0 32 32zM320 704H192a64 64 0 0 1-63.552-56.512L128 640v-576a64 64 0 0 1 56.512-63.552L192 0h640a64 64 0 0 1 63.552 56.512L896 64V640a64 64 0 0 1-56.512 63.552L832 704h-128v-32a32 32 0 0 0-63.488-5.76L640 672V704H384v-32a32 32 0 0 0-63.488-5.76L320 672V704z m416-448a32 32 0 0 0 5.76-63.488L736 192h-448a32 32 0 0 0-5.76 63.488L288 256h448z m0 256a32 32 0 0 0 5.76-63.488L736 448h-448a32 32 0 0 0-5.76 63.488L288 512h448z"  horiz-adv-x="1024" />

    
    <glyph glyph-name="bda-tree-shrink2" unicode="&#59200;" d="M960 0a64 64 0 0 0 7.488-127.552L960-128H64a64 64 0 0 0-7.488 127.552L64 0h896z m-245.248 547.52a64 64 0 0 0 106.496 0l136.384-204.608a64 64 0 0 0-53.248-99.52H631.616a64 64 0 0 0-53.248 99.52zM320 448a64 64 0 0 0 7.488-127.552L320 320H64a64 64 0 0 0-7.488 127.552L64 448h256z m640 448a64 64 0 0 0 7.488-127.552L960 768H64A64 64 0 0 0 56.512 895.552L64 896h896z"  horiz-adv-x="1024" />

    
    <glyph glyph-name="bda-tree-expand2" unicode="&#59201;" d="M960 0a64 64 0 0 0 7.488-127.552L960-128H64a64 64 0 0 0-7.488 127.552L64 0h896z m-55.616 524.608a64 64 0 0 0 53.248-99.52l-136.384-204.608a64 64 0 0 0-106.496 0L578.368 425.088a64 64 0 0 0 53.248 99.52zM320 448a64 64 0 0 0 7.488-127.552L320 320H64a64 64 0 0 0-7.488 127.552L64 448h256z m640 448a64 64 0 0 0 7.488-127.552L960 768H64A64 64 0 0 0 56.512 895.552L64 896h896z"  horiz-adv-x="1024" />

    
    <glyph glyph-name="bda-share" unicode="&#59199;" d="M512 844.8a51.2 51.2 0 0 0 5.9904-102.0416L512 742.4H204.8a51.2 51.2 0 0 1-50.8416-45.2096L153.6 691.2v-614.4a51.2 51.2 0 0 1 45.2096-50.8416L204.8 25.600000000000023h614.4a51.2 51.2 0 0 1 50.8416 45.2096L870.4 76.79999999999995v307.2a51.2 51.2 0 0 0 102.0416 5.9904L972.8 384v-307.2a153.6 153.6 0 0 0-144.5888-153.344L819.2-76.79999999999995H204.8a153.6 153.6 0 0 0-153.344 144.5888L51.2 76.79999999999995V691.2a153.6 153.6 0 0 0 144.5888 153.344L204.8 844.8h307.2z m287.744-19.8144l4.4544-3.9424 144.8448-144.8448a51.2 51.2 0 0 0 3.9424-67.9424l-3.9424-4.4544-144.8448-144.8448a51.2 51.2 0 0 0-76.3904 67.9424l3.9936 4.5056 50.5856 50.688C581.376 550.0416 460.8 407.9104 460.8 230.39999999999998a51.2 51.2 0 0 0-102.4 0c0 236.6464 169.1648 425.984 435.2 456.4992L731.8016 748.544a51.2 51.2 0 0 0-3.9936 67.9424l3.9936 4.5056a51.2 51.2 0 0 0 67.9424 3.9424z"  horiz-adv-x="1024" />

    
    <glyph glyph-name="bda-message-tip" unicode="&#59197;" d="M512 896a512 512 0 1 0 0-1024A512 512 0 0 0 512 896z m0-128a384 384 0 1 1 0-768A384 384 0 0 1 512 768z m0-576a64 64 0 1 0 0-128 64 64 0 0 0 0 128z m0 512a64 64 0 0 0 63.552-56.512L576 640v-320a64 64 0 0 0-127.552-7.488L448 320V640a64 64 0 0 0 64 64z"  horiz-adv-x="1024" />

    
    <glyph glyph-name="bda-d-arrow-left" unicode="&#59195;" d="M918.016 805.376a42.666667 42.666667 0 0 0 47.701333-70.4L536.661333 384l429.056-350.976 5.461334-5.376a42.666667 42.666667 0 0 0-59.562667-60.672l-469.333333 384-0.597334 0.512-4.864 4.864a41.813333 41.813333 0 0 0-9.984 31.744 39.594667 39.594667 0 0 0 3.754667 13.824 42.666667 42.666667 0 0 0 5.717333 9.130667l-1.962666-2.645334 0.597333 0.853334a42.581333 42.581333 0 0 0 3.242667 3.925333l3.498666 3.413333 0.597334 0.426667 469.333333 384z m-341.333333 0a42.666667 42.666667 0 0 0 47.701333-70.4L195.328 384l429.056-350.976 5.461333-5.376a42.666667 42.666667 0 0 0-59.562666-60.672l-469.333334 384-0.597333 0.512-4.864 4.864A41.813333 41.813333 0 0 0 85.333333 384v2.133333l0.170667 2.048a39.594667 39.594667 0 0 0 3.754667 13.824 42.666667 42.666667 0 0 0 5.717333 9.130667l-1.962667-2.645333 0.597334 0.853333a42.581333 42.581333 0 0 0 3.242666 3.925333l3.498667 3.413334 0.597333 0.426666 469.333334 384z"  horiz-adv-x="1024" />

    
    <glyph glyph-name="bda-d-arrow-right" unicode="&#59196;" d="M489.984 805.376l6.4-4.352 469.333333-384 0.597334-0.512a39.594667 39.594667 0 0 0 6.741333-7.253333l0.512-0.853334 1.28-1.792a42.496 42.496 0 0 0-3.669333-50.261333l-4.864-4.864-0.597334-0.512-469.333333-384a42.666667 42.666667 0 0 0-59.562667 60.586667l5.461334 5.461333L871.338667 384 442.282667 734.976a42.666667 42.666667 0 0 0 47.701333 70.4z m-341.333333 0l6.4-4.352 469.333333-384 0.597333-0.512a39.594667 39.594667 0 0 0 6.741334-7.253333l0.512-0.853334 1.28-1.792a42.496 42.496 0 0 0-3.669334-50.261333l-4.864-4.864-0.597333-0.512-469.333333-384a42.666667 42.666667 0 0 0-59.562667 60.586667l5.461333 5.461333L530.005333 384 100.949333 734.976a42.666667 42.666667 0 0 0 47.701334 70.4z"  horiz-adv-x="1024" />

    
    <glyph glyph-name="bda-system-index" unicode="&#59189;" d="M784.256 448c21.12 0 39.168-15.04 42.112-35.328l0.32-1.984a64 64 0 0 1 86.4-50.368l4.224 1.664a43.328 43.328 0 0 0 52.736-17.6l48.256-80.768a40.064 40.064 0 0 0-5.504-48.32l-5.12-4.608a63.616 63.616 0 0 1-4.48-97.664l4.48-3.712c16.64-12.672 21.184-35.2 10.624-52.928l-48.256-80.768a43.328 43.328 0 0 0-52.736-17.6l-4.16 1.6a64 64 0 0 1-82.816-36.48l-2.176-6.784-1.792-9.024a42.112 42.112 0 0 0-42.112-35.328h-96.512a42.112 42.112 0 0 0-42.112 35.328l-0.32 2.048a64 64 0 0 1-86.464 50.24l-4.16-1.6a43.328 43.328 0 0 0-52.736 17.6l-48.256 80.768a40.064 40.064 0 0 0 5.504 48.32l5.12 4.608a63.616 63.616 0 0 1 4.48 97.664l-4.48 3.712a40.192 40.192 0 0 0-10.624 52.928l48.256 80.768a43.328 43.328 0 0 0 52.736 17.6l4.16-1.6a64 64 0 0 1 82.816 36.48l2.176 6.784 1.792 9.024A42.112 42.112 0 0 0 687.744 448h96.512zM320 0a64 64 0 0 0 7.488-127.552L320-128H64a64 64 0 0 0-7.488 127.552L64 0h256z m416 305.408l-1.984-2.752a192.512 192.512 0 0 0-125.056-72.768l-4.608-0.448 2.24-5.568c14.144-40.064 14.336-83.392 1.536-123.008l-3.648-10.176 4.48-0.576c49.92-7.04 94.72-33.6 124.992-72.768l2.048-2.688 2.048 2.752a192.512 192.512 0 0 0 125.056 72.704l4.416 0.576-2.176 5.568a192.064 192.064 0 0 0-1.472 123.008l3.584 10.176-4.48 0.448a192.512 192.512 0 0 0-124.992 72.832l-1.984 2.688zM960 896a64 64 0 0 0 63.552-56.512L1024 832v-256a64 64 0 0 0-127.552-7.488L896 576V768H128v-512h128a64 64 0 0 0 63.552-56.512L320 192a64 64 0 0 0-56.512-63.552L256 128H64a64 64 0 0 0-63.552 56.512L0 192V832A64 64 0 0 0 56.512 895.552L64 896h896z"  horiz-adv-x="1024" />

    
    <glyph glyph-name="bda-basic-element" unicode="&#59190;" d="M128-96a96 96 0 0 0-95.552 86.784L32 0V768A96 96 0 0 0 118.784 863.552L128 864h216.448c33.28 0 64-17.28 81.472-45.184l4.416-7.872 28.608-57.28a32 32 0 0 1 22.656-17.088l5.952-0.576h240.896c33.28 0 64-17.28 81.472-45.184l4.416-7.872 37.44-74.944h23.872a96 96 0 0 0 95.552-86.784l0.448-9.216a96 96 0 0 0-3.584-25.856l-143.36-512a96 96 0 0 0-92.416-70.144H128z m747.648 640H291.712a32 32 0 0 1-30.784-23.36l-143.36-512a32 32 0 0 1 30.784-40.64h583.936a32 32 0 0 1 30.784 23.36l143.36 512a32 32 0 0 1-30.784 40.64z m-531.2 256H128a32 32 0 0 1-31.488-26.24L96 768v-598.976l103.296 368.832a96 96 0 0 0 83.328 69.76l9.088 0.384h488.512l-23.168 46.336a32 32 0 0 1-22.656 17.088l-5.952 0.576H487.552c-33.28 0-64 17.28-81.472 45.184l-4.416 7.872-28.608 57.28a32 32 0 0 1-22.656 17.088L344.448 800z"  horiz-adv-x="1024" />

    
    <glyph glyph-name="bda-basic-event" unicode="&#59191;" d="M704 864a32 32 0 0 0 31.488-26.24L736 832v-32H832a160 160 0 0 0 159.68-149.504L992 640v-576a160 160 0 0 0-160-160H192A160 160 0 0 0 32 64V640A160 160 0 0 0 192 800h96V832a32 32 0 0 0 63.488 5.76L352 832v-32h320V832a32 32 0 0 0 32 32z m224-384h-832V64a96 96 0 0 1 86.784-95.552L192-32h640a96 96 0 0 1 96 96V480z m-288-320a32 32 0 0 0 5.76-63.488L640 96H384a32 32 0 0 0-5.76 63.488L384 160h256z m128 192a32 32 0 0 0 5.76-63.488L768 288H256a32 32 0 0 0-5.76 63.488L256 352h512z m-480 384H192A96 96 0 0 1 96 640v-96h832V640a96 96 0 0 1-86.784 95.552L832 736h-96V640a32 32 0 0 0-63.488-5.76L672 640V736h-320V640a32 32 0 0 0-63.488-5.76L288 640V736z"  horiz-adv-x="1024" />

    
    <glyph glyph-name="bda-basic-resources" unicode="&#59192;" d="M737.664 832c46.208 0 88.96-24 112.768-63.232l154.88-255.68a129.28 129.28 0 0 0-8.96-147.008l-328.704-418.624a198.4 198.4 0 0 0-311.296 0L27.712 366.08000000000004a129.28 129.28 0 0 0-8.96 147.008l154.88 255.68A131.712 131.712 0 0 0 286.208 832h451.392z m0.896-64H285.44c-23.168 0-44.672-12.032-56.576-31.68l-155.52-256.448c-13.952-23.04-12.16-52.352 4.544-73.6l329.92-419.84a132.864 132.864 0 0 1 208.384 0l329.92 419.84c16.704 21.248 18.56 50.56 4.48 73.6l-155.456 256.448A66.112 66.112 0 0 1 738.56 768z m-15.36-230.4a32 32 0 0 0 9.408-39.872L729.6 492.8l-192-256a32 32 0 0 0-46.976-4.608L486.4 236.79999999999995l-192 256a32 32 0 0 0 47.36 42.688l3.84-4.288L512 309.312 678.4 531.2a32 32 0 0 0 44.8 6.4z"  horiz-adv-x="1024" />

    
    <glyph glyph-name="bda-basic-action" unicode="&#59193;" d="M416 736a128 128 0 0 0 127.68-118.4l0.32-9.6v-81.152l1.984 1.152c15.744 8.768 33.536 14.272 52.48 15.68L608 544a128 128 0 0 0 107.392-58.304l4.096-6.848 4.288 0.576 12.224 0.576a128 128 0 0 0 107.392-58.304l4.096-6.848 4.288 0.576 12.224 0.576a128 128 0 0 0 127.68-118.4l0.32-9.6V-64a32 32 0 0 0-63.488-5.76L928-64V288a64 64 0 0 1-80 62.016l-7.424-2.496a32 32 0 0 0-40.896 16l-1.92 5.312a64 64 0 0 1-77.696 45.184l-7.488-2.496a32 32 0 0 0-40.896 16l-1.92 5.312A64 64 0 0 1 544 416c0-40.32-57.088-42.56-63.424-6.72L480 416v192a64 64 0 0 1-127.552 7.488L352 608v-344.256a32 32 0 0 0-50.432-26.24l-4.224 3.648-99.84 99.84a64 64 0 0 1-96.064-84.224l5.248-5.952 299.648-291.84a32 32 0 0 0-40.192-49.536l-4.48 3.648-299.968 292.16a128 128 0 0 0 172.928 188.48l8.128-7.488 45.184-45.184L288 608a128 128 0 0 0 118.4 127.68L416 736z m-0.64 128a256 256 0 0 0 255.36-237.76 32 32 0 0 0-63.808-4.48 192 192 0 0 1-382.976 0 32 32 0 1 0-63.872 4.48A255.936 255.936 0 0 0 415.424 864z"  horiz-adv-x="1024" />

    
    <glyph glyph-name="bda-basic-evaluation" unicode="&#59194;" d="M615.232 864a96 96 0 0 0 90.496-64H768a160 160 0 0 0 159.68-149.504L928 640v-576a160 160 0 0 0-149.504-159.68L768-96H256a160 160 0 0 0-159.68 149.504L96 64V640a160 160 0 0 0 149.504 159.68L256 800h62.272a95.808 95.808 0 0 0 90.496 64z m-296.96-128H256a96 96 0 0 1-95.552-86.784L160 640v-576a96 96 0 0 1 86.784-95.552L256-32h512a96 96 0 0 1 95.552 86.784L864 64V640a96 96 0 0 1-86.784 95.552L768 736h-62.336l-20.736-62.336a96 96 0 0 0-82.304-65.28L593.92 608H430.144a96 96 0 0 0-91.072 65.664L318.272 736zM640 288a32 32 0 0 0 31.488-26.24l0.512-5.76v-192a32 32 0 0 0-63.488-5.76L608 64v192a32 32 0 0 0 32 32z m128 192a32 32 0 0 0 31.488-26.24L800 448v-384a32 32 0 0 0-63.488-5.76L736 64V448a32 32 0 0 0 32 32z m-256-128a32 32 0 0 0 31.488-26.24L544 320v-256a32 32 0 0 0-63.488-5.76L480 64V320a32 32 0 0 0 32 32z m103.232 448H408.768a32 32 0 0 1-30.72-23.296c0.96-2.752 1.408-5.696 1.408-8.704a32 32 0 0 0-1.28-8.704l0.256-1.408 21.312-64a32 32 0 0 1 30.4-21.888h163.712a32 32 0 0 1 30.4 21.888l21.312 64a32 32 0 0 1 0.448 1.408A25.472 25.472 0 0 0 644.48 768a32 32 0 0 0 1.28 8.704 31.552 31.552 0 0 1-30.592 23.296z"  horiz-adv-x="1024" />

    
    <glyph glyph-name="bda-system-org" unicode="&#59184;" d="M640 896a64 64 0 0 0 64-64v-192h192a64 64 0 0 0 63.552-56.512L960 576v-576a64 64 0 0 0 7.488-127.552L960-128H64a64 64 0 0 0-7.488 127.552L64 0V832a64 64 0 0 0 64 64zM576 768H192v-768h384V768z m256-256h-128v-512h128V512zM448 320a64 64 0 0 0 7.488-127.552L448 192H320a64 64 0 0 0-7.488 127.552L320 320h128z m0 256a64 64 0 0 0 7.488-127.552L448 448H320a64 64 0 0 0-7.488 127.552L320 576h128z"  horiz-adv-x="1024" />

    
    <glyph glyph-name="bda-system-workflow" unicode="&#59183;" d="M320 512a64 64 0 0 0-64 64V832a64 64 0 0 0 64 64h384a64 64 0 0 0 64-64v-256a64 64 0 0 0-64-64H576v-64h256a64 64 0 0 0 63.552-56.512L896 384v-128h64a64 64 0 0 0 64-64v-256a64 64 0 0 0-64-64h-320a64 64 0 0 0-64 64v256a64 64 0 0 0 64 64h128V320H256v-64h128a64 64 0 0 0 64-64v-256a64 64 0 0 0-64-64H64a64 64 0 0 0-64 64v256a64 64 0 0 0 64 64h64V384a64 64 0 0 0 56.512 63.552L192 448h256V512z m0-384H128v-128h192v128z m576 0h-192v-128h192v128zM640 768H384v-128h256V768z"  horiz-adv-x="1024" />

    
    <glyph glyph-name="bda-system-log" unicode="&#59186;" d="M896 896a64 64 0 0 0 64-64v-896a64 64 0 0 0-64-64H128a64 64 0 0 0-64 64V832a64 64 0 0 0 64 64z m-64-128H192v-768h640V768z m-192-512a64 64 0 0 0 7.488-127.552L640 128H320a64 64 0 0 0-7.488 127.552L320 256h320zM512 512a64 64 0 0 0 7.488-127.552L512 384H320a64 64 0 0 0-7.488 127.552L320 512h192z m192 192a64 64 0 0 0 7.488-127.552L704 576H320a64 64 0 0 0-7.488 127.552L320 704h384z"  horiz-adv-x="1024" />

    
    <glyph glyph-name="bda-system-user" unicode="&#59187;" d="M512 832a256 256 0 0 0 190.848-426.624A447.872 447.872 0 0 0 960 0a64 64 0 0 0-128 0 320 320 0 0 1-640 0 64 64 0 0 0-128 0 448 448 0 0 0 257.152 405.44A256 256 0 0 0 512 832z m0-128a128 128 0 1 1 0-256 128 128 0 0 1 0 256z"  horiz-adv-x="1024" />

    
    <glyph glyph-name="bda-system-role" unicode="&#59188;" d="M784.256 448c21.12 0 39.168-15.04 42.112-35.328l0.32-1.984a64 64 0 0 1 86.4-50.368l4.224 1.664a43.328 43.328 0 0 0 52.736-17.6l48.256-80.768a40.064 40.064 0 0 0-5.504-48.32l-5.12-4.608a63.616 63.616 0 0 1-4.48-97.664l4.48-3.712c16.64-12.672 21.184-35.2 10.624-52.928l-48.256-80.768a43.328 43.328 0 0 0-52.736-17.6l-4.16 1.6a64 64 0 0 1-82.816-36.48l-2.176-6.784-1.792-9.024a42.112 42.112 0 0 0-42.112-35.328h-96.512a42.112 42.112 0 0 0-42.112 35.328l-0.32 2.048a64 64 0 0 1-86.464 50.24l-4.16-1.6a43.328 43.328 0 0 0-52.736 17.6l-48.256 80.768a40.064 40.064 0 0 0 5.504 48.32l5.12 4.608a63.616 63.616 0 0 1 4.48 97.664l-4.48 3.712a40.192 40.192 0 0 0-10.624 52.928l48.256 80.768a43.328 43.328 0 0 0 52.736 17.6l4.16-1.6a64 64 0 0 1 82.816 36.48l2.176 6.784 1.792 9.024A42.112 42.112 0 0 0 687.744 448h96.512zM736 305.408l-1.984-2.752a192.512 192.512 0 0 0-125.056-72.768l-4.608-0.448 2.24-5.568c14.144-40.064 14.336-83.392 1.536-123.008l-3.648-10.176 4.48-0.576c49.92-7.04 94.72-33.6 124.992-72.768l2.048-2.688 2.048 2.752a192.512 192.512 0 0 0 125.056 72.704l4.416 0.576-2.176 5.568a192.064 192.064 0 0 0-1.472 123.008l3.584 10.176-4.48 0.448a192.512 192.512 0 0 0-124.992 72.832l-1.984 2.688zM416 896a224 224 0 0 0 177.92-360.064c3.648-1.536 7.232-3.328 10.752-5.12a64 64 0 1 0-58.112-114.048A288 288 0 0 1 128 160a64 64 0 0 0-128 0 416 416 0 0 0 238.08 376.128A224 224 0 0 0 416 896z m0-128a96 96 0 1 1 0-192 96 96 0 0 1 0 192z"  horiz-adv-x="1024" />

    
    <glyph glyph-name="bda-tree-measure" unicode="&#59181;" d="M928 64a32 32 0 0 0 5.76-63.488L928 0h-832a32 32 0 0 0-5.76 63.488L96 64h832zM804.032 768c44.8 0 80.192-11.712 107.52-35.84 26.048-24.192 39.744-57.344 39.744-99.392 0-53.824-24.832-90.432-73.344-108.352 26.112-8.96 46.016-22.784 59.648-40.704 14.912-18.624 22.4-42.816 22.4-71.744 0-45.568-14.272-82.816-42.24-111.808-29.824-28.992-68.992-44.16-116.224-44.16-45.312 0-81.984 13.12-109.312 38.656-27.968 26.048-44.864 62.72-50.688 110.08L640 420.928h68.352c1.28-33.152 10.56-58.688 29.184-76.608 16.192-16.576 37.312-24.832 63.36-24.832 28.608 0 51.584 9.6 68.992 27.584 14.912 16.576 23.04 36.608 23.04 61.44 0 28.992-8.128 50.368-24.32 64.128-12.736 11.84-30.976 18.56-54.336 20.288l-12.096 0.448h-32.32v56.576h31.68c27.328 0 47.872 6.912 61.504 20.032 13.696 13.12 21.12 32.384 21.12 57.28 0 24.832-6.784 43.456-19.2 56.576-13.696 13.76-34.176 19.968-60.288 19.968-26.752 0-47.872-7.552-62.72-22.72-12.8-13.056-21.504-31.616-25.28-55.808l-1.472-12.544h-66.56c3.84 49.024 19.968 86.976 49.152 114.56 27.328 27.584 62.72 40.704 106.24 40.704zM256 768v-512H179.328V674.048a263.296 263.296 0 0 0-95.936-58.24L64 609.6v77.44c22.528 5.76 45.696 15.744 71.04 30.08 20.224 12.672 37.76 25.728 52.672 40L198.336 768H256z m231.168 0c44.16 0 81.28-13.376 109.888-41.472 27.968-28.16 42.24-64 42.24-108.352 0-43.584-15.552-82.944-45.44-118.848-16.192-18.112-43.2-41.216-81.408-69.888l-14.912-11.008c-45.056-32.256-73.792-61.12-86.208-86.592l-3.52-8.32H640V256H320c0 49.92 14.976 93.568 46.208 131.52 16.896 21.76 52.032 52.032 104.704 91.456 31.232 23.872 53.312 42.88 66.304 57.6 20.864 25.344 31.872 52.8 31.872 82.304 0 28.16-7.168 49.28-21.44 63.36-14.336 14.08-35.776 21.056-63.104 21.056-29.248 0-51.392-10.56-66.304-32.32-13.696-18.496-21.376-43.968-23.936-77.376l-0.832-14.784H322.624c0.64 56.32 15.616 101.248 44.8 135.04C397.44 750.4 437.76 768 487.168 768z"  horiz-adv-x="1024" />

    
    <glyph glyph-name="bda-tree-dimension" unicode="&#59182;" d="M928 64a32 32 0 0 0 5.76-63.488L928 0h-832a32 32 0 0 0-5.76 63.488L96 64h832zM255.36 768l128.576-511.616L384 768h144.32c31.36 0 56.064-12.16 73.728-36.544 16.32-22.976 24.704-53.76 24.704-92.544 0-28.672-4.416-53.056-12.8-73.152a93.568 93.568 0 0 0-36.16-42.24c20.736-6.528 36.16-20.096 46.72-40.96 10.24-20.032 15.488-48 15.488-82.432 0-51.648-11.008-89.6-32.64-113.984-16.512-17.92-39.232-27.776-67.648-29.76l-10.88-0.384H325.12L294.4 384.384H153.6L122.88 256H64l128.64 512h62.72z m551.488 0c41.28 0 75.584-15.168 102.08-45.568 25.6-28.928 40.768-68.992 46.144-118.656h-55.936c-5.888 32.448-16.64 55.872-32.896 71.04-15.68 15.232-35.84 22.08-60.352 22.08-36.8 0-64.32-17.28-82.944-53.12-17.152-31.744-25.536-75.904-25.536-132.48 0-57.92 8.32-102.784 25.024-133.824 18.176-33.152 46.656-50.368 84.928-50.368 25.024 0 45.632 8.96 61.376 25.472 16.64 18.688 28.416 46.976 35.328 84.224H960c-7.872-57.984-25.984-102.848-54.976-135.232-27.008-30.4-59.392-45.568-97.152-45.568-58.432 0-102.08 26.24-130.56 77.312-25.024 44.16-37.312 103.488-37.312 177.984 0 73.152 12.8 133.184 38.784 178.752 29.44 52.48 72.128 77.952 128.064 77.952zM522.624 484.032h-87.04v-159.168h85.696c19.392 0 34.88 4.992 45.888 15.04 14.08 12.928 21.184 32.96 21.184 61.696 0 29.376-5.312 50.176-15.424 63.104-10.624 12.864-27.392 19.328-50.304 19.328zM225.152 677.6320000000001H223.36l-53.248-224.448h107.904l-52.8 224.448z m290.368 21.504H435.648V552.96H514.56c22.08 0 37.568 6.4 46.784 17.92 8.832 12.16 13.696 31.552 13.696 58.048 0 24.384-4.864 42.304-13.696 53.12-9.664 11.456-24.704 17.152-45.888 17.152z"  horiz-adv-x="1024" />

    
    <glyph glyph-name="bda-message-info" unicode="&#59177;" d="M512 896a512 512 0 1 0 0-1024A512 512 0 0 0 512 896z m0-400a48 48 0 0 1-48-48v-320l0.448-6.528A48 48 0 0 1 560 128V448l-0.448 6.528A48 48 0 0 1 512 496zM511.552 704a63.552 63.552 0 1 1 0-127.104 63.552 63.552 0 0 1 0 127.104z"  horiz-adv-x="1024" />

    
    <glyph glyph-name="bda-message-error" unicode="&#59178;" d="M512 896a512 512 0 1 0 0-1024A512 512 0 0 0 512 896z m204.928-318.08a48 48 0 0 1-62.464 4.672l-5.376-4.672-131.584-131.52L385.92 577.9200000000001l-5.376 4.672A48 48 0 0 1 318.08 510.08l131.52-131.584-131.52-131.584-4.672-5.376a48 48 0 0 1 67.2-67.136l5.312 4.672 131.584 131.52 131.584-131.52 5.376-4.672a48 48 0 0 1 62.464 72.512L585.408 378.496l131.52 131.584 4.672 5.376a48 48 0 0 1-4.672 62.464z"  horiz-adv-x="1024" />

    
    <glyph glyph-name="bda-message-warning" unicode="&#59179;" d="M512 896a512 512 0 1 0 0-1024A512 512 0 0 0 512 896z m-0.448-668.608a63.552 63.552 0 1 1 0-127.104 63.552 63.552 0 0 1 0 127.104z m0 476.608A63.552 63.552 0 0 1 448 640.448l31.808-285.952c0-35.136 14.208-63.616 31.744-63.616s31.744 28.48 31.808 63.616l31.808 285.952A63.552 63.552 0 0 1 511.616 704z"  horiz-adv-x="1024" />

    
    <glyph glyph-name="bda-message-success" unicode="&#59180;" d="M512 896a512 512 0 1 0 0-1024A512 512 0 0 0 512 896z m245.824-312.448a48 48 0 0 1-67.84-1.92L415.488 291.39200000000005l-112.512 133.76-4.992 5.12a48 48 0 0 1-68.48-66.88l144.256-171.52 4.928-5.12c14.464-12.8 35.2-15.488 52.352-7.296a47.744 47.744 0 0 1 23.68 13.76l305.024 322.56 4.48 5.504a48 48 0 0 1-6.4 62.336z"  horiz-adv-x="1024" />

    
    <glyph glyph-name="bda-tree-date" unicode="&#59185;" d="M672 832a32 32 0 0 0 31.488-26.24L704 800V768h128a128 128 0 0 0 128-128v-576a128 128 0 0 0-128-128H192a128 128 0 0 0-128 128V640a128 128 0 0 0 128 128h128v32a32 32 0 0 0 63.488 5.76L384 800V768h256v32a32 32 0 0 0 32 32zM320 704H192a64 64 0 0 1-63.552-56.512L128 640v-576a64 64 0 0 1 56.512-63.552L192 0h640a64 64 0 0 1 63.552 56.512L896 64V640a64 64 0 0 1-56.512 63.552L832 704h-128v-32a32 32 0 0 0-63.488-5.76L640 672V704H384v-32a32 32 0 0 0-63.488-5.76L320 672V704z m416-448a32 32 0 0 0 5.76-63.488L736 192h-448a32 32 0 0 0-5.76 63.488L288 256h448z m0 256a32 32 0 0 0 5.76-63.488L736 448h-448a32 32 0 0 0-5.76 63.488L288 512h448z"  horiz-adv-x="1024" />

    
    <glyph glyph-name="bda-tree-org" unicode="&#59176;" d="M512 832a128 128 0 0 0 128-128v-128h128a128 128 0 0 0 128-128v-448h32a32 32 0 0 0 5.76-63.488L928-64h-832a32 32 0 0 0-5.76 63.488L96 0H128V704a128 128 0 0 0 128 128h256z m0-64H256a64 64 0 0 1-63.552-56.512L192 704v-704h384V704a64 64 0 0 1-56.512 63.552L512 768z m256-256h-128v-512h192V448a64 64 0 0 1-56.512 63.552L768 512z m-288-256a32 32 0 0 0 5.76-63.488L480 192h-192a32 32 0 0 0-5.76 63.488L288 256h192z m0 192a32 32 0 0 0 5.76-63.488L480 384h-192a32 32 0 0 0-5.76 63.488L288 448h192z m0 192a32 32 0 0 0 5.76-63.488L480 576h-192a32 32 0 0 0-5.76 63.488L288 640h192z"  horiz-adv-x="1024" />

    
    <glyph glyph-name="bda-tree-plan" unicode="&#59175;" d="M480 832a32 32 0 0 0 0-64H192a64 64 0 0 1-63.552-56.512L128 704v-640a64 64 0 0 1 56.512-63.552L192 0h640a64 64 0 0 1 63.552 56.512L896 64V352a32 32 0 1 0 64 0V64a128 128 0 0 0-128-128H192a128 128 0 0 0-128 128V704a128 128 0 0 0 128 128h288z m256-640a32 32 0 0 0 5.76-63.488L736 128h-448a32 32 0 0 0-5.76 63.488L288 192h448z m-192 192a32 32 0 0 0 5.76-63.488L544 320h-256a32 32 0 0 0-5.76 63.488L288 384h256z m406.656 438.656a32 32 0 0 0 3.648-40.832l-3.648-4.48-320-320a32 32 0 0 0-48.96 40.832l3.648 4.48 320 320a32 32 0 0 0 45.312 0z"  horiz-adv-x="1024" />

    
    <glyph glyph-name="bda-question" unicode="&#59174;" d="M512 832a448 448 0 1 0 0-896A448 448 0 0 0 512 832z m0-64a384 384 0 1 1 0-768A384 384 0 0 1 512 768z m-3.904-514.56c12.288 0 22.912-3.84 31.296-11.712 7.808-7.808 12.288-17.92 12.288-30.144 0-12.288-4.48-22.912-12.8-30.72a43.072 43.072 0 0 0-30.784-11.776 43.52 43.52 0 0 0-30.72 12.288 39.232 39.232 0 0 0-12.352 30.208c0 12.288 3.968 22.336 12.352 30.144a43.072 43.072 0 0 0 30.72 11.776zM518.144 576c36.352 0 65.92-9.472 88.32-29.632 22.4-19.584 33.536-46.4 33.536-80.512 0-27.904-7.296-50.816-20.672-68.736-5.056-5.568-21.248-20.672-48.064-44.16-10.048-8.32-17.344-17.92-22.4-27.904a78.976 78.976 0 0 1-8.32-36.352v-7.808H476.16V288.64c0 21.248 3.328 39.68 11.2 54.784 7.232 15.104 29.056 38.528 65.408 70.976l6.656 7.808a61.888 61.888 0 0 1 15.104 39.68c0 18.496-5.568 33.024-15.616 43.648-10.624 10.624-25.728 15.616-44.8 15.616-24.512 0-41.856-7.232-52.48-22.912-9.472-12.8-13.952-31.36-13.952-54.784H384c0 41.344 11.712 73.792 36.352 97.28 24 23.488 56.448 35.2 97.792 35.2z"  horiz-adv-x="1024" />

    
    <glyph glyph-name="bda-collect-empty2" unicode="&#59168;" d="M540.608 825.024c12.736-6.592 23.04-17.28 29.312-30.592l88.448-187.008c9.408-19.84 27.52-33.664 48.64-36.864l197.696-30.016c35.264-5.312 59.776-39.552 54.592-76.416a68.48 68.48 0 0 0-18.816-38.592L797.44 280c-15.232-15.488-22.208-37.76-18.56-59.648l33.728-205.504c6.016-36.736-17.6-71.552-52.736-77.888a62.208 62.208 0 0 0-40.96 6.784L542.08 40.76800000000003a62.208 62.208 0 0 1-60.16 0l-176.832-97.024a63.296 63.296 0 0 0-87.232 28.288 70.016 70.016 0 0 0-6.464 42.816l33.728 205.44a69.248 69.248 0 0 1-18.56 59.712L83.52 425.6a69.504 69.504 0 0 0-1.152 95.36 63.68 63.68 0 0 0 36.928 19.648l197.76 30.016c20.992 3.2 39.168 16.96 48.64 36.864l88.32 187.008c15.872 33.344 54.592 47.04 86.592 30.592zM512 768L423.424 579.328c-17.28-36.8-49.28-63.232-87.04-72.32l-10.368-2.112L128 474.688l143.296-146.88a140.16 140.16 0 0 0 38.592-109.44l-1.408-11.008L274.688 0l177.088 97.92a123.712 123.712 0 0 0 110.016 5.12l10.432-5.12L749.312 0l-33.792 207.36a140.992 140.992 0 0 0 29.888 112.384l7.296 8.064L896 474.688l-198.016 30.208A129.28 129.28 0 0 0 605.632 569.6l-5.12 9.792L512 768z"  horiz-adv-x="1024" />

    
    <glyph glyph-name="bda-collect-solid2" unicode="&#59169;" d="M540.608 825.024c12.736-6.592 23.04-17.28 29.312-30.592l88.448-187.008c9.408-19.84 27.52-33.664 48.64-36.864l197.696-30.016c35.264-5.312 59.776-39.552 54.592-76.416a68.48 68.48 0 0 0-18.816-38.592L797.44 280c-15.232-15.488-22.208-37.76-18.56-59.648l33.728-205.504c6.016-36.736-17.6-71.552-52.736-77.888a62.208 62.208 0 0 0-40.96 6.784L542.08 40.76800000000003a62.208 62.208 0 0 1-60.16 0l-176.832-97.024a63.296 63.296 0 0 0-87.232 28.288 70.016 70.016 0 0 0-6.464 42.816l33.728 205.44a69.248 69.248 0 0 1-18.56 59.712L83.52 425.6a69.504 69.504 0 0 0-1.152 95.36 63.68 63.68 0 0 0 36.928 19.648l197.76 30.016c20.992 3.2 39.168 16.96 48.64 36.864l88.32 187.008c15.872 33.344 54.592 47.04 86.592 30.592z"  horiz-adv-x="1024" />

    
    <glyph glyph-name="bda-thumbs-solid2" unicode="&#59170;" d="M256 533.376V-64H192a128 128 0 0 0-128 128V405.312a128 128 0 0 0 128 128l64 0.064zM561.792 832a149.312 149.312 0 0 0 149.312-149.312v-85.376a64 64 0 0 1 64-64h60.48c68.672 0 124.416-55.68 124.416-124.416v-174.208A298.688 298.688 0 0 0 661.312-64H320V544.576a149.44 149.44 0 0 1 92.16 127.872l0.256 10.24A149.312 149.312 0 0 0 561.792 832z"  horiz-adv-x="1024" />

    
    <glyph glyph-name="bda-subscribe-empty2" unicode="&#59171;" d="M768 832a128 128 0 0 0 128-128v-688.448A112.448 112.448 0 0 0 704-64l-146.752 146.752a64 64 0 0 1-90.496 0L320-64a112.448 112.448 0 0 0-192 79.552V704a128 128 0 0 0 128 128h512z m0-64H256a64 64 0 0 1-63.552-56.512L192 704v-688.448a48.448 48.448 0 0 1 77.312-39.04l5.44 4.736L421.504 128a128 128 0 0 0 172.864 7.488l8.128-7.488 146.752-146.752a48.448 48.448 0 0 1 82.304 27.712l0.448 6.592V704a64 64 0 0 1-56.512 63.552L768 768zM512 672a32 32 0 0 0 31.488-26.24L544 640v-96H640a32 32 0 0 0 5.76-63.488L640 480H544V384a32 32 0 0 0-63.488-5.76L480 384V480H384a32 32 0 0 0-5.76 63.488L384 544h96V640a32 32 0 0 0 32 32z"  horiz-adv-x="1024" />

    
    <glyph glyph-name="bda-subscribe-solid2" unicode="&#59172;" d="M768 832a128 128 0 0 0 128-128v-688.448A112.448 112.448 0 0 0 704-64l-146.752 146.752a64 64 0 0 1-90.496 0L320-64a112.448 112.448 0 0 0-192 79.552V704a128 128 0 0 0 128 128h512zM512 672a32 32 0 0 1-32-32v-96H384l-5.76-0.512A32 32 0 0 1 384 480h96V384l0.512-5.76A32 32 0 0 1 544 384V480H640l5.76 0.512A32 32 0 0 1 640 544H544V640l-0.512 5.76A32 32 0 0 1 512 672z"  horiz-adv-x="1024" />

    
    <glyph glyph-name="bda-thumbs-empty2" unicode="&#59173;" d="M192-64a128 128 0 0 0-128 128V405.312a128 128 0 0 0 128 128h71.104c79.04 0 143.744 61.44 148.992 139.136l0.32 10.24a149.312 149.312 0 0 0 298.688 0v-85.376a64 64 0 0 1 64-64h60.48c68.672 0 124.416-55.68 124.416-124.416v-174.208A298.688 298.688 0 0 0 661.312-64H192z m64 533.376H192a64 64 0 0 1-63.552-56.576L128 405.312V64a64 64 0 0 1 56.512-63.552L192 0h64V469.376zM561.792 768c-44.352 0-80.832-33.856-84.992-78.912l-0.832-20.992A213.44 213.44 0 0 0 320 477.056L320 0h341.312c125.44 0 227.84 98.368 234.368 222.208l0.32 12.48V408.896a60.48 60.48 0 0 1-53.376 60.032l-7.04 0.384h-60.48a128 128 0 0 0-127.616 118.464l-0.384 9.6V682.624C647.104 729.792 608.896 768 561.792 768z"  horiz-adv-x="1024" />

    
    <glyph glyph-name="bda-anlyz-subscribe" unicode="&#59167;" d="M896 896a128 128 0 0 0 128-128v-729.088a128 128 0 0 0-195.84-108.544L545.92 106.88a64 64 0 0 1-67.84 0l-282.24-176.448A128 128 0 0 0 0 38.912000000000035V768a128 128 0 0 0 128 128h768z m0-128H128v-729.088l282.24 176.448a192 192 0 0 0 191.68 6.848l11.84-6.848L896 38.912000000000035V768zM512 704a64 64 0 0 0 63.552-56.512L576 640v-64h64a64 64 0 0 0 7.488-127.552L640 448H576v-64a64 64 0 0 0-127.552-7.488L448 384V448H384a64 64 0 0 0-7.488 127.552L384 576h64V640a64 64 0 0 0 64 64z"  horiz-adv-x="1024" />

    
    <glyph glyph-name="bda-tag-self-index" unicode="&#59163;" d="M768 448a192 192 0 0 0 156.864-302.72c59.968-40.512 99.136-104 99.136-177.28a64 64 0 0 0-127.552-7.488L896-32c0 50.176-54.976 96-128 96-69.376 0-122.432-41.344-127.616-88.512L640-32a64 64 0 0 0-128 0c0 73.28 39.168 136.768 99.2 177.28A192 192 0 0 0 768 448z m192 448a64 64 0 0 0 63.552-56.512L1024 832v-299.136a64 64 0 0 0-127.552-7.488l-0.384 7.488L896 768H540.992L151.552 322.94399999999996l219.072-219.136a64 64 0 0 0 5.312-84.48l-5.312-6.016a64 64 0 0 0-84.48-5.312l-6.08 5.312L18.752 274.75199999999995a64 64 0 0 0-8 80.832l5.12 6.592 448 512a64 64 0 0 0 40.32 21.312L512 896h448z m-192-576a64 64 0 1 1 0-128 64 64 0 0 1 0 128z m-32 384a96 96 0 1 0 0-192 96 96 0 0 0 0 192z"  horiz-adv-x="1024" />

    
    <glyph glyph-name="bda-tag-self-collect" unicode="&#59164;" d="M337.856 581.056l-261.12-38.016-7.296-1.472a64 64 0 0 1-28.16-107.648l188.864-184.128-44.544-260.096-0.832-7.04a64 64 0 0 1 93.696-60.48L512 44.99199999999996l233.6-122.816 6.4-2.944a64 64 0 0 1 86.4 70.4l-44.608 260.16 188.928 184.128 5.056 5.44a64 64 0 0 1-40.512 103.68L686.08 581.12 569.408 817.6a64 64 0 0 1-114.816 0L337.92 581.12zM512 644.736l74.24-150.528 3.904-6.848a64 64 0 0 1 44.288-28.16l166.08-24.128-120.128-117.12-5.312-5.824a64 64 0 0 1-13.12-50.88l28.352-165.312-148.48 78.016-7.168 3.2a64 64 0 0 1-52.48-3.2l-148.544-78.08 28.416 165.376 0.832 7.808a64 64 0 0 1-19.2 48.832L223.36 435.008l166.144 24.192a64 64 0 0 1 48.128 35.008L512 644.736z"  horiz-adv-x="1024" />

    
    <glyph glyph-name="bda-mark-object" unicode="&#59165;" d="M831.9922 896a63.99844 63.99844 0 0 0 63.99844-63.99844v-895.978161a63.99844 63.99844 0 0 0-103.997465-49.918783L512 110.099156l-279.993175-223.99454a63.99844 63.99844 0 0 0-103.677473 42.750958L128.00936-63.97660099999996V832.00156a63.99844 63.99844 0 0 0 63.99844 63.99844z m-63.99844-127.99688H256.00624v-698.798967l215.994735 172.795788a63.99844 63.99844 0 0 0 73.406211 4.607888l6.591839-4.607888L767.99376 69.14015500000005V768.00312zM512 640.0062399999999a127.99688 127.99688 0 1 0 0-255.99376 127.99688 127.99688 0 0 0 0 255.99376z"  horiz-adv-x="1024" />

    
    <glyph glyph-name="bda-tag-self-create" unicode="&#59166;" d="M665.6 896a64 64 0 0 0 40.96-14.848l230.4-192A64 64 0 0 0 960 640v-704a64 64 0 0 0-64-64H128a64 64 0 0 0-64 64V832a64 64 0 0 0 64 64z m-23.232-128H192v-768h640V609.9839999999999L642.368 768zM512 640a64 64 0 0 0 63.552-56.512L576 576v-128h128a64 64 0 0 0 7.488-127.552L704 320H576v-128a64 64 0 0 0-127.552-7.488L448 192V320H320a64 64 0 0 0-7.488 127.552L320 448h128V576a64 64 0 0 0 64 64z"  horiz-adv-x="1024" />

    
    <glyph glyph-name="bda-cancel-full" unicode="&#59162;" d="M384 672a32 32 0 0 0 31.488-26.24L416 640v-85.312c0-38.528-29.12-70.208-66.56-74.24l-8.128-0.448H256a32 32 0 0 0-5.76 63.488L256 544h85.312a10.688 10.688 0 0 1 10.176 7.296l0.512 3.392V640a32 32 0 0 0 32 32zM341.312 288c38.528 0 70.208-29.12 74.24-66.56l0.448-8.128V128a32 32 0 0 0-63.488-5.76L352 128v85.312a10.688 10.688 0 0 1-7.296 10.176l-3.392 0.512H256a32 32 0 0 0-5.76 63.488L256 288h85.312zM768 288a32 32 0 0 0 5.76-63.488L768 224h-85.312a10.688 10.688 0 0 1-10.176-7.296l-0.512-3.392V128a32 32 0 0 0-63.488-5.76L608 128v85.312c0 38.528 29.12 70.208 66.56 74.24l8.128 0.448H768zM640 672a32 32 0 0 0 31.488-26.24L672 640v-85.312c0-4.736 3.072-8.768 7.296-10.176l3.392-0.512H768a32 32 0 0 0 5.76-63.488L768 480h-85.312a74.688 74.688 0 0 0-74.24 66.56L608 554.624V640a32 32 0 0 0 32 32zM860.416 832C915.456 832 960 787.392 960 732.4159999999999v-696.832c0-55.04-44.608-99.584-99.584-99.584H163.584A99.584 99.584 0 0 0 64 35.583999999999946V732.4159999999999C64 787.456 108.608 832 163.584 832h696.832z m0-64H163.584a35.584 35.584 0 0 1-35.136-29.824L128 732.4159999999999v-696.832c0-17.664 12.928-32.384 29.824-35.136l5.76-0.448h696.832a35.584 35.584 0 0 1 35.136 29.824l0.448 5.76V732.4159999999999a35.584 35.584 0 0 1-29.824 35.136L860.416 768z"  horiz-adv-x="1024" />

    
    <glyph glyph-name="bda-tree-index-open" unicode="&#59158;" d="M145.92-64a63.872 63.872 0 0 0-50.88 25.28 96 96 0 0 0-30.592 61.44L64 32v704a96 96 0 0 0 86.784 95.552L160 832H384a96 96 0 0 0 96-96 32 32 0 0 1 26.24-31.488L512 704h305.92a96 96 0 0 0 96-96l-0.448-9.472-1.408-9.344L887.04 448H896a64 64 0 0 0 62.08-79.552l-96-384a64 64 0 0 0-62.08-48.448H145.92zM896 384H241.92l-95.232-381.12c2.368-1.088 4.928-1.92 7.552-2.368L160 0h640L896 384z m-46.72 217.728a32 32 0 0 1 0.512 3.136l0.128 3.136a32 32 0 0 1-26.24 31.488L817.92 640H512a96 96 0 0 0-96 96 32 32 0 0 1-26.24 31.488L384 768H160a32 32 0 0 1-31.488-26.24L128 736v-543.808l51.84 207.36A64 64 0 0 0 241.92 448h580.032l27.328 153.728z"  horiz-adv-x="1024" />

    
    <glyph glyph-name="bda-tree-index-close" unicode="&#59159;" d="M960 0a64 64 0 0 0-64-64H128a64 64 0 0 0-64 64V736a96 96 0 0 0 86.784 95.552L160 832H384a96 96 0 0 0 96-96 32 32 0 0 1 26.24-31.488L512 704h352a96 96 0 0 0 95.552-86.784L960 608V0z m-64 384H128v-384h768V384zM384 768H160a32 32 0 0 1-31.488-26.24L128 736V448h768V608a32 32 0 0 1-26.24 31.488L864 640H512a96 96 0 0 0-96 96 32 32 0 0 1-26.24 31.488L384 768z"  horiz-adv-x="1024" />

    
    <glyph glyph-name="bda-tree-tagobj" unicode="&#59160;" d="M562.432 810.3679999999999l320-137.152A128 128 0 0 0 960 555.5840000000001v-395.008a128 128 0 0 0-92.8-123.072l-320-91.456a128 128 0 0 0-70.4 0l-320 91.456A128 128 0 0 0 64 160.57600000000002V555.52A128 128 0 0 0 141.568 673.28l320 137.152a128 128 0 0 0 100.864 0zM128.448 563.2L128 555.52v-395.008a64 64 0 0 1 39.168-59.008l7.232-2.56L480 11.711999999999989v433.92L134.528 583.6800000000001a63.872 63.872 0 0 1-6.08-20.48z m761.024 20.48L544 445.632v-433.856l305.6 87.232a64 64 0 0 1 45.952 53.824l0.448 7.68V555.648a63.936 63.936 0 0 1-6.528 28.16zM494.976 754.432l-8.192-2.88-289.472-124.032L511.936 501.76l314.688 125.824-289.408 124.032a64 64 0 0 1-42.24 2.88z"  horiz-adv-x="1024" />

    
    <glyph glyph-name="bda-tree-tag" unicode="&#59161;" d="M64 736a96 96 0 0 0 86.784 95.552L160 832h271.552a96 96 0 0 0 60.8-21.76l7.04-6.4 433.792-433.792a96 96 0 0 0 6.592-128.448l-6.592-7.296-271.488-271.488a96 96 0 0 0-128.512-6.592l-7.232 6.592-433.856 433.792a96 96 0 0 0-27.648 58.368L64 464.448V736zM160 768a32 32 0 0 1-31.488-26.24L128 736v-271.552a32 32 0 0 1 6.08-18.752l3.264-3.84 433.856-433.792a32 32 0 0 1 40.768-3.712l4.48 3.712 271.488 271.488a32 32 0 0 1 3.712 40.832l-3.712 4.48-433.792 433.792a32 32 0 0 1-17.6 8.96L431.552 768H160z m71.744-103.744a64 64 0 1 0 90.56-90.56A64 64 0 0 0 231.68 664.3199999999999z"  horiz-adv-x="1024" />

    
    <glyph glyph-name="de-menu-shrink" unicode="&#59156;" d="M101.312 10.687999999999988a37.312 37.312 0 0 1 0-74.688h821.376a37.312 37.312 0 1 1 0 74.688zM474.688 272a37.312 37.312 0 1 1 0-74.688h448a37.312 37.312 0 0 1 0 74.688zM305.856 536.384a32 32 0 0 1-44.992 4.928L95.168 408.32a32 32 0 0 1 0.128-49.92l165.632-132.032a32 32 0 0 1 51.968 24.96V516.4159999999999a32 32 0 0 1-7.04 20.032z m168.832 34.304a37.312 37.312 0 1 1 0-74.688h448a37.312 37.312 0 0 1 0 74.688zM101.312 832a37.312 37.312 0 0 1 0-74.688h821.376a37.312 37.312 0 0 1 0 74.688z"  horiz-adv-x="1024" />

    
    <glyph glyph-name="de-menu-expand" unicode="&#59157;" d="M922.688 10.687999999999988a37.312 37.312 0 0 0 0-74.688H101.312a37.312 37.312 0 1 0 0 74.688zM549.312 272a37.312 37.312 0 1 0 0-74.688h-448a37.312 37.312 0 0 0 0 74.688z m168.832 264.384a32 32 0 0 0 44.992 4.928l165.696-133.056a32 32 0 0 0-0.128-49.92l-165.632-132.032a32 32 0 0 0-51.968 24.96V516.4159999999999a32 32 0 0 0 7.04 20.032z m-168.832 34.304a37.312 37.312 0 1 0 0-74.688h-448a37.312 37.312 0 0 0 0 74.688zM922.688 832a37.312 37.312 0 0 0 0-74.688H101.312a37.312 37.312 0 0 0 0 74.688z"  horiz-adv-x="1024" />

    
    <glyph glyph-name="bda-operating-manual" unicode="&#59143;" d="M401.152 768a128 128 0 0 1 221.696 0H832a128 128 0 0 0 128-128v-512a128 128 0 0 0-128-128h-176.96c-35.136-39.296-86.208-64-143.04-64a191.552 191.552 0 0 0-143.04 64H192a128 128 0 0 0-128 128V640a128 128 0 0 0 128 128h209.152z m-32.192-64H192a64 64 0 0 1-63.552-56.512L128 640v-512a64 64 0 0 1 56.576-63.552L192 64l205.568-0.064 19.072-21.312c24.128-27.008 58.432-42.624 95.36-42.624a127.36 127.36 0 0 1 87.808 34.88l7.552 7.744 19.072 21.312L832 64a64 64 0 0 1 63.552 56.512L896 128V640a64 64 0 0 1-56.512 63.552L832 704h-177.024l-7.296-7.872a191.744 191.744 0 0 0-122.752-55.68L512 640a191.744 191.744 0 0 0-135.68 56.128L368.96 704zM512 544a32 32 0 0 0 31.488-26.24L544 512v-256a32 32 0 0 0-63.488-5.76L480 256V512a32 32 0 0 0 32 32z m-128-192a32 32 0 0 0 5.76-63.488L384 288H256a32 32 0 0 0-5.76 63.488L256 352h128z m384 0a32 32 0 0 0 5.76-63.488L768 288h-128a32 32 0 0 0-5.76 63.488L640 352h128z m-384 128a32 32 0 0 0 5.76-63.488L384 416H256a32 32 0 0 0-5.76 63.488L256 480h128z m384 0a32 32 0 0 0 5.76-63.488L768 416h-128a32 32 0 0 0-5.76 63.488L640 480h128z"  horiz-adv-x="1024" />

    
    <glyph glyph-name="bda-about" unicode="&#59145;" d="M512 832a448 448 0 1 0 0-896A448 448 0 0 0 512 832z m0-64a384 384 0 1 1 0-768A384 384 0 0 1 512 768z m0-544a32 32 0 0 0 31.488-26.24L544 192v-64a32 32 0 0 0-63.488-5.76L480 128v64a32 32 0 0 0 32 32z m0 448a32 32 0 0 0 31.488-26.24L544 640v-320a32 32 0 0 0-63.488-5.76L480 320V640a32 32 0 0 0 32 32z"  horiz-adv-x="1024" />

    
    <glyph glyph-name="bda-label-service" unicode="&#59147;" d="M832 832a128 128 0 0 0 128-128v-160a32 32 0 1 0-64 0V704a64 64 0 0 1-56.512 63.552L832 768H192a64 64 0 0 1-63.552-56.512L128 704v-640a64 64 0 0 1 56.512-63.552L192 0h160a32 32 0 1 0 0-64H192a128 128 0 0 0-128 128V704a128 128 0 0 0 128 128h640z m49.792-359.744a32 32 0 0 0 32-32V259.20000000000005a32 32 0 0 0-9.344-22.592l-271.552-271.552a32 32 0 0 0-45.248 0l-180.992 180.992a32 32 0 0 0 0 45.312l271.488 271.488a32 32 0 0 0 22.656 9.408z m-32-64l-135.808-0.064-239.488-239.488 135.808-135.744 239.488 239.488V408.32zM732.8 323.20000000000005a32 32 0 1 0 0-64 32 32 0 0 0 0 64zM448 544a32 32 0 0 0 5.76-63.488L448 480H256a32 32 0 0 0-5.76 63.488L256 544h192z m192 128a32 32 0 0 0 5.76-63.488L640 608H256a32 32 0 0 0-5.76 63.488L256 672h384z"  horiz-adv-x="1024" />

    
    <glyph glyph-name="bda-back-old" unicode="&#59149;" d="M512 832a448 448 0 1 0 0-896A448 448 0 0 0 512 832z m0-64a384 384 0 1 1 0-768A384 384 0 0 1 512 768z m17.728-357.376a32 32 0 0 0-30.4-56l-5.12 2.752-192 128a31.872 31.872 0 0 0-3.904 3.136l-0.576 0.512-0.704 0.704-0.512 0.576a32.192 32.192 0 0 0-2.816 3.456l-0.32 0.512-0.64 0.896a32 32 0 0 0-1.792 3.328l-0.32 0.832-0.448 0.96a31.744 31.744 0 0 0-1.28 4.352L288.64 505.6a31.872 31.872 0 0 0-0.64 4.48v1.408a32.64 32.64 0 0 0 0.128 3.584l0.064 0.512 0.256 1.216 0.064 0.96a31.872 31.872 0 0 0 0.448 2.176l0.32 0.96 0.448 1.472a31.744 31.744 0 0 0 1.536 3.648l0.64 1.216a32 32 0 0 0 4.608 6.464l0.512 0.576 0.704 0.704 0.576 0.512a32.192 32.192 0 0 0 3.456 2.816l0.512 0.32 192 128a32 32 0 0 0 40-49.6l-4.48-3.648L425.664 544H544a192 192 0 0 0 11.264-383.68L544 160H448a32 32 0 0 0-5.76 63.488L448 224h96a128 128 0 0 1 9.6 255.68L544 480H425.728l104-69.376z"  horiz-adv-x="1024" />

    
    <glyph glyph-name="bda-account-setting" unicode="&#59150;" d="M736 512a160 160 0 0 0 102.528-282.88C909.76 190.20799999999997 960 113.47199999999998 960 32c0-78.528-45.76-94.144-192.256-95.808L736-64C564.288-64 512-51.96799999999996 512 32c0 81.472 50.24 158.208 121.536 197.184A160 160 0 0 0 736 512zM832 832a128 128 0 0 0 128-128v-160a32 32 0 1 0-64 0V704a64 64 0 0 1-56.512 63.552L832 768H192a64 64 0 0 1-63.552-56.512L128 704v-640a64 64 0 0 1 56.512-63.552L192 0h160a32 32 0 1 0 0-64H192a128 128 0 0 0-128 128V704a128 128 0 0 0 128 128h640z m-96-640C651.264 192 576 114.048 576 32c0-22.336 28.48-30.656 131.456-31.872l43.264-0.064c114.24 0.64 145.28 8.64 145.28 31.936 0 82.048-75.264 160-160 160z m0 256a96 96 0 1 1 0-192 96 96 0 0 1 0 192zM448 544a32 32 0 0 0 5.76-63.488L448 480H256a32 32 0 0 0-5.76 63.488L256 544h192z m192 128a32 32 0 0 0 5.76-63.488L640 608H256a32 32 0 0 0-5.76 63.488L256 672h384z"  horiz-adv-x="1024" />

    
    <glyph glyph-name="bda-logout" unicode="&#59153;" d="M672 832a32 32 0 1 0 0-64H192a64 64 0 0 1-63.552-56.512L128 704v-640a64 64 0 0 1 56.512-63.552L192 0h480a32 32 0 1 0 0-64H192a128 128 0 0 0-128 128V704a128 128 0 0 0 128 128h480z m114.176-293.696l4.48-3.648 128-128a32.64 32.64 0 0 0 9.344-21.376 31.36 31.36 0 0 0 0-1.28v-1.28a32.192 32.192 0 0 0-0.32-3.328L928 384a32.128 32.128 0 0 0-9.344-22.656l2.816 3.328a32.192 32.192 0 0 0-2.112-2.56l-0.704-0.768-128-128-4.48-3.648a32 32 0 0 0-40.832 48.96L818.752 352H384a32 32 0 0 0-5.76 63.488L384 416h434.752l-73.408 73.344a32 32 0 0 0 40.832 48.96z"  horiz-adv-x="1024" />

    
    <glyph glyph-name="bda-myTodo" unicode="&#59154;" d="M704 448a256 256 0 1 0 0-512 256 256 0 0 0 0 512z m128 384a128 128 0 0 0 128-128v-160a32 32 0 1 0-64 0V704a64 64 0 0 1-56.512 63.552L832 768H192a64 64 0 0 1-63.552-56.512L128 704v-640a64 64 0 0 1 56.512-63.552L192 0h160a32 32 0 1 0 0-64H192a128 128 0 0 0-128 128V704a128 128 0 0 0 128 128h640z m-128-448a192 192 0 1 1 0-384 192 192 0 0 1 0 384z m0-32a32 32 0 0 0 31.488-26.24L736 320v-96H832a32 32 0 0 0 5.76-63.488L832 160h-128a32 32 0 0 0-32 32V320a32 32 0 0 0 32 32z m-256 192a32 32 0 0 0 5.76-63.488L448 480H256a32 32 0 0 0-5.76 63.488L256 544h192z m192 128a32 32 0 0 0 5.76-63.488L640 608H256a32 32 0 0 0-5.76 63.488L256 672h384z"  horiz-adv-x="1024" />

    
    <glyph glyph-name="bda-last-move" unicode="&#59139;" d="M512 128l1.216 0.064h2.56l1.92 0.192L512 128a64.512 64.512 0 0 1 38.08 12.544 63.936 63.936 0 0 1 7.168 6.208l-5.76-5.12 0.512 0.448 5.248 4.672 256 256 5.312 6.016a64 64 0 0 1-95.808 84.48L576 346.55999999999995V768a64 64 0 0 1-127.552 7.488L448 768v-421.44L301.248 493.248a64 64 0 0 1-95.808-84.48l5.312-6.016 256-256 5.248-4.672 0.512-0.448-5.76 5.12a64.512 64.512 0 0 1 41.472-18.624l2.56-0.128H512z m320-192a64 64 0 0 1 7.488 127.552L832 64H192a64 64 0 0 1-7.488-127.552L192-64h640z"  horiz-adv-x="1024" />

    
    <glyph glyph-name="bda-upper-move" unicode="&#59140;" d="M512 640l1.216-0.064h2.56l1.92-0.192L512 640a64.512 64.512 0 0 0 38.08-12.544c2.56-1.92 4.928-3.904 7.168-6.208l-5.76 5.12 0.512-0.448 5.248-4.672 256-256 5.312-6.016a64 64 0 0 0-95.808-84.48L576 421.44V0a64 64 0 0 0-127.552-7.488L448 0V421.44L301.248 274.75199999999995a64 64 0 0 0-95.808 84.48l5.312 6.016 256 256 5.248 4.672 0.512 0.448-5.76-5.12a64.512 64.512 0 0 0 41.472 18.624L510.784 640H512z m320 192a64 64 0 0 0 7.488-127.552L832 704H192a64 64 0 0 0-7.488 127.552L192 832h640z"  horiz-adv-x="1024" />

    
    <glyph glyph-name="bda-down-move" unicode="&#59141;" d="M512-64h1.28l2.496 0.128 2.24 0.128 1.472 0.192 1.664 0.192a64.192 64.192 0 0 1 5.504 1.024l2.048 0.512 1.92 0.64a63.808 63.808 0 0 1 14.72 6.528l0.96 0.64 3.328 2.24c2.688 1.92 5.248 4.096 7.68 6.528l-5.76-5.056 0.448 0.384 5.248 4.672 256 256 5.312 6.016a64 64 0 0 1-95.808 84.48L576 154.55999999999995V768a64 64 0 0 1-127.552 7.488L448 768v-613.504L301.248 301.24800000000005a64 64 0 0 1-95.808-84.48l5.312-6.016 256-256 5.248-4.672a64.256 64.256 0 0 1 21.312-11.328l1.984-0.576 2.048-0.512 1.664-0.32a64.192 64.192 0 0 1 5.504-0.896l1.472-0.192 2.24-0.128 2.56-0.128H512z"  horiz-adv-x="1024" />

    
    <glyph glyph-name="bda-up-move" unicode="&#59142;" d="M512 832h1.28l2.496-0.128 2.24-0.128 1.472-0.192 1.664-0.192a64.192 64.192 0 0 0 5.504-1.024l2.048-0.512 1.92-0.64a63.808 63.808 0 0 0 14.72-6.528l0.96-0.64 3.328-2.24c2.688-1.92 5.248-4.096 7.68-6.528l-5.76 5.056 0.448-0.384 5.248-4.672 256-256 5.312-6.016a64 64 0 0 0-95.808-84.48L576 613.44V0a64 64 0 0 0-127.552-7.488L448 0V613.504L301.248 466.752a64 64 0 0 0-95.808 84.48l5.312 6.016 256 256 5.248 4.672a64.256 64.256 0 0 0 21.312 11.328l1.984 0.576a63.552 63.552 0 0 0 2.048 0.512l1.664 0.32a64.192 64.192 0 0 0 5.504 0.896l1.472 0.192 2.24 0.128 2.56 0.128H512z"  horiz-adv-x="1024" />

    
    <glyph glyph-name="bda-preview" unicode="&#59138;" d="M512 768c282.752 0 512-171.904 512-384s-229.248-384-512-384-512 171.904-512 384 229.248 384 512 384z m0-128C293.248 640 128 516.096 128 384s165.248-256 384-256 384 123.904 384 256-165.248 256-384 256z m0-64a192 192 0 1 0 0-384 192 192 0 0 0 0 384z m0-128a64 64 0 1 1 0-128 64 64 0 0 1 0 128z"  horiz-adv-x="1024" />

    
    <glyph glyph-name="bda-tag-view-index" unicode="&#58951;" d="M960 384a64 64 0 0 0 64-64v-384a64 64 0 0 0-64-64H512a64 64 0 0 0-64 64V320a64 64 0 0 0 64 64z m0 512a64 64 0 0 0 63.552-56.512L1024 832v-299.136a64 64 0 0 0-127.552-7.488l-0.384 7.488L896 768H540.992L151.552 322.94399999999996l219.072-219.136a64 64 0 0 0 5.312-84.48l-5.312-6.016a64 64 0 0 0-84.48-5.312l-6.08 5.312L18.752 274.75199999999995a64 64 0 0 0-8 80.832l5.12 6.592 448 512a64 64 0 0 0 40.32 21.312L512 896h448z m-64-640H576v-256h320v256zM736 608m-96 0a96 96 0 1 1 192 0 96 96 0 1 1-192 0Z"  horiz-adv-x="1024" />

    
    <glyph glyph-name="bda-tag-plan" unicode="&#59137;" d="M512.0176 896a63.99996 63.99996 0 0 0 63.55196-56.511965L576.01756 832.00004v-127.99992c0-3.647998-0.32-7.167996-0.895999-10.623993a191.99988 191.99988 0 0 0 110.143931-264.255835l3.903997-4.159998 170.431894-204.415872C882.961368 270.14439100000004 896.01736 325.504357 896.01736 384.00032a63.99996 63.99996 0 0 0 127.99992 0 509.631681 509.631681 0 0 0-76.351952-269.119832l61.503961-73.919954a63.99996 63.99996 0 0 0-92.799942-87.807945l-5.503996 5.887997-45.439972 54.463966A510.271681 510.271681 0 0 0 512.0176-127.99936000000002a510.271681 510.271681 0 0 0-353.407779 141.503912l-45.439972-54.463966a63.99996 63.99996 0 0 0-103.039935 75.455952l4.735997 6.463996 61.503961 73.919954A509.631681 509.631681 0 0 0 0.01792 384.00032c0 136.063915 53.375967 263.871835 146.879908 358.975776a63.99996 63.99996 0 0 0 91.263943-89.791944A382.463761 382.463761 0 0 1 128.01784 384.00032c0-58.431963 13.055992-113.855929 36.415977-163.455898L334.865711 424.960294l3.903997 4.159998a192.06388 192.06388 0 0 0 110.207931 264.319835 24.447985 24.447985 0 0 0-0.511999 3.071998L448.01764 704.00012V832.00004a63.99996 63.99996 0 0 0 63.99996 63.99996z m82.495948-557.439652C569.553564 326.65635599999996 541.457582 320.00036 512.0176 320.00036c-29.503982 0-57.471964 6.655996-82.495948 18.559988l-188.735882-226.431858A382.783761 382.783761 0 0 1 512.0176 0.000559999999950378c105.855934 0 201.727874 42.879973 271.23183 112.12793zM512.0176 576.0002a63.99996 63.99996 0 1 1 0-127.99992 63.99996 63.99996 0 0 1 0 127.99992z"  horiz-adv-x="1024" />

    
    <glyph glyph-name="bda-home-index" unicode="&#59135;" d="M832 320a64 64 0 0 0 63.552-56.512L896 256v-320a64 64 0 0 0-56.512-63.552L832-128H192a64 64 0 0 0-63.552 56.512L128-64v320a64 64 0 0 0 127.552 7.488L256 256v-256h512v256a64 64 0 0 0 56.512 63.552L832 320zM547.456 885.312l6.208-4.736 448-384a64 64 0 0 0-76.864-102.016l-6.4 4.864L512 747.712 105.6 399.424a64 64 0 0 0-84.608 1.152l-5.568 5.76a64 64 0 0 0 1.152 84.672l5.76 5.568 448 384A64 64 0 0 0 547.456 885.312z"  horiz-adv-x="1024" />

    
    <glyph glyph-name="bda-portrait-index" unicode="&#59136;" d="M819.655168 51.776527999999985a63.99996 63.99996 0 0 0-16.19199-89.087945A509.887681 509.887681 0 0 0 512.45536-127.99936000000002c-105.407934 0-206.143871 31.99998-291.007818 90.687943a63.99996 63.99996 0 0 0 72.831954 105.279935A381.887761 381.887761 0 0 1 512.45536 0.000559999999950378a381.887761 381.887761 0 0 1 218.239864 67.967958 63.99996 63.99996 0 0 0 88.959944-16.19199zM512.45536 704.00012a191.99988 191.99988 0 0 0 156.863902-302.719811C729.287224 360.768335 768.4552 297.28037400000005 768.4552 224.00041999999996c0-120.703925-73.727954-155.711903-224.76786-159.6159L512.45536 64.00052000000005c-172.159892 0-255.99984 31.23198-255.99984 159.9999 0 73.279954 39.167976 136.767915 99.199938 177.279889A191.99988 191.99988 0 0 0 512.45536 704.00012z m332.543792-511.99968a63.99996 63.99996 0 1 0 110.847931-63.99996 63.99996 63.99996 0 0 0-110.847931 63.99996z m-752.51153 23.423985a63.99996 63.99996 0 1 0 63.99996-110.84793 63.99996 63.99996 0 0 0-63.99996 110.84793zM512.45536 320.00036c-73.023954 0-127.99992-45.823971-127.99992-95.99994 0-23.615985 22.527986-31.99998 127.99992-31.99998h13.311992c94.079941 0.768 114.687928 9.407994 114.687928 31.99998C640.45528 274.176389 585.479314 320.00036 512.45536 320.00036zM378.311444 816.38405a63.99996 63.99996 0 0 0-30.399981-85.311947 383.99976 383.99976 0 0 1-218.239864-378.111764 63.99996 63.99996 0 1 0-127.55192-10.175993A511.99968 511.99968 0 0 0 293.063497 846.720031a63.99996 63.99996 0 0 0 85.247947-30.335981zM731.975223 846.656031a511.99968 511.99968 0 0 0 290.879818-503.807685 63.99996 63.99996 0 0 0-127.61592 10.239993 383.99976 383.99976 0 0 1-218.239864 378.047764A63.99996 63.99996 0 0 0 731.975223 846.592031zM512.45536 576.0002a63.99996 63.99996 0 1 1 0-127.99992 63.99996 63.99996 0 0 1 0 127.99992z m0 319.9998a63.99996 63.99996 0 1 0 0-127.99992 63.99996 63.99996 0 0 0 0 127.99992z"  horiz-adv-x="1024" />

    
    <glyph glyph-name="bda-tag-index" unicode="&#59128;" d="M960.05312 896a64 64 0 0 0 64-64v-384a64 64 0 0 0-18.752-45.248l-512-512a64 64 0 0 0-90.496 0l-384 384a64 64 0 0 0-2.944 87.424l448 512A64 64 0 0 0 512.05312 896zM541.10912 768.064L151.60512 322.94399999999996 448.05312 26.49599999999998l448 448V768l-354.944 0.064zM736.05312 704a96 96 0 1 0 0-192 96 96 0 0 0 0 192z"  horiz-adv-x="1024" />

    
    <glyph glyph-name="bda-tag-market" unicode="&#59129;" d="M192 64a64 64 0 0 0 7.488-127.552L192-64H64a64 64 0 0 0-7.488 127.552L64 64h128z m768 0a64 64 0 0 0 7.488-127.552L960-64H448a64 64 0 0 0-7.488 127.552L448 64h512z m0 384a64 64 0 0 0 7.488-127.552L960 320H448a64 64 0 0 0-7.488 127.552L448 448h512zM192 448a64 64 0 0 0 7.488-127.552L192 320H64a64 64 0 0 0-7.488 127.552L64 448h128z m0 384a64 64 0 0 0 7.488-127.552L192 704H64a64 64 0 0 0-7.488 127.552L64 832h128z m768 0a64 64 0 0 0 7.488-127.552L960 704H448a64 64 0 0 0-7.488 127.552L448 832h512z"  horiz-adv-x="1024" />

    
    <glyph glyph-name="bda-requirement" unicode="&#59130;" d="M960 896a64 64 0 0 0 63.552-56.512L1024 832v-128a64 64 0 0 0-127.552-7.488L896 704V768H128v-768h64a64 64 0 0 0 63.552-56.512L256-64a64 64 0 0 0-56.512-63.552L192-128H64a64 64 0 0 0-63.552 56.512L0-64V832A64 64 0 0 0 56.512 895.552L64 896h896z m-229.504-341.952a64 64 0 0 0 90.496 0l181.056-181.056a64 64 0 0 0 0-90.496l-316.8-316.8a64 64 0 0 0-32.64-17.472l-226.304-45.248a64 64 0 0 0-75.328 75.328l45.248 226.24a64 64 0 0 0 17.472 32.704z m45.248-135.744l-257.792-257.856-22.656-113.024 113.216 22.592 257.792 257.728-90.56 90.56zM384 448a64 64 0 0 0 7.488-127.552L384 320H320a64 64 0 0 0-7.488 127.552L320 448h64z m128 192a64 64 0 0 0 7.488-127.552L512 512H320a64 64 0 0 0-7.488 127.552L320 640h192z"  horiz-adv-x="1024" />

    
    <glyph glyph-name="bda-tag-renew" unicode="&#59131;" d="M378.88 816.64a64 64 0 0 0-30.528-85.12 384 384 0 0 1-92.416-633.792L256 192a64 64 0 0 0 127.552 7.488L384 192v-198.656a63.744 63.744 0 0 0 0.064-29.952L384-64a64 64 0 0 0-56.512-63.552L320-128H64a64 64 0 0 0-7.488 127.552L64 0l109.376-0.064A511.552 511.552 0 0 0 0 384 512 512 0 0 0 293.696 847.232a64 64 0 0 0 85.184-30.528zM960 896a64 64 0 0 0 7.488-127.552L960 768h-109.312A511.488 511.488 0 0 0 1024 384a512 512 0 0 0-289.28-461.12 64 64 0 0 0-55.68 115.2A384 384 0 0 1 768 670.2719999999999V576a64 64 0 0 0-127.552-7.488L640 576V832a64 64 0 0 0 64 64h256z"  horiz-adv-x="1024" />

    
    <glyph glyph-name="bda-tag-object" unicode="&#59132;" d="M486.763324 890.823328a63.99644 63.99644 0 0 0 50.429195 0l447.975081-191.989321a69.820116 69.820116 0 0 0 9.663463-5.119715l0.831954-0.639964A62.268536 62.268536 0 0 0 1023.949443 639.9572820000001v-511.971521a63.99644 63.99644 0 0 0-38.781843-58.876725l-447.975081-191.989321-0.831954-0.319982c-1.599911-0.639964-3.199822-1.279929-4.799733-1.7919l5.631687 2.175879a65.916333 65.916333 0 0 0-12.671295-3.96778l-1.919893-0.383978a49.853227 49.853227 0 0 0-6.65563-0.767958h-7.935559a62.908501 62.908501 0 0 0-6.655629 0.767958l-1.919894 0.383978a58.364753 58.364753 0 0 0-12.671295 3.96778l5.631687-2.175879a64.380419 64.380419 0 0 0-4.799733 1.7919l-0.831954 0.383979-447.975081 191.98932A63.99644 63.99644 0 0 0 0.0064 127.98576100000002V639.9572820000001a62.524522 62.524522 0 0 0 28.22243 53.117046l0.89595 0.575968a61.052604 61.052604 0 0 0 9.663463 5.119715l-5.247708-2.559858c1.087939 0.639964 2.239875 1.215932 3.391811 1.727904l1.919893 0.831954zM127.99928 542.874683v-372.715268l319.982201-137.144371V405.794308L127.99928 542.938679z m767.957283 0L575.974362 405.794308v-372.715268l319.982201 137.144371V542.938679zM511.977922 762.318476L226.489802 639.9572820000001 511.977922 517.660085 797.402045 639.9572820000001 511.977922 762.318476z"  horiz-adv-x="1024" />

    
    <glyph glyph-name="bda-tag-maintain" unicode="&#59133;" d="M784.256 448c21.12 0 39.168-15.04 42.112-35.328l0.32-1.984a64 64 0 0 1 86.4-50.368l4.224 1.664a43.328 43.328 0 0 0 52.736-17.6l48.256-80.768a40.064 40.064 0 0 0-5.504-48.32l-5.12-4.608a63.616 63.616 0 0 1-4.48-97.664l4.48-3.712c16.64-12.672 21.184-35.2 10.624-52.928l-48.256-80.768a43.328 43.328 0 0 0-52.736-17.6l-4.16 1.6a64 64 0 0 1-82.816-36.48l-2.176-6.784-1.792-9.024a42.112 42.112 0 0 0-42.112-35.328h-96.512a42.112 42.112 0 0 0-42.112 35.328l-0.32 2.048a64 64 0 0 1-86.464 50.24l-4.16-1.6a43.328 43.328 0 0 0-52.736 17.6l-48.256 80.768a40.064 40.064 0 0 0 5.504 48.32l5.12 4.608a63.616 63.616 0 0 1 4.48 97.664l-4.48 3.712a40.192 40.192 0 0 0-10.624 52.928l48.256 80.768a43.328 43.328 0 0 0 52.736 17.6l4.16-1.6a64 64 0 0 1 82.816 36.48l2.176 6.784 1.792 9.024A42.112 42.112 0 0 0 687.744 448h96.512zM960 896a64 64 0 0 0 63.552-56.512L1024 832v-299.136a64 64 0 0 0-127.552-7.488l-0.384 7.488L896 768H540.992L151.552 322.94399999999996l219.072-219.136a64 64 0 0 0 5.312-84.48l-5.312-6.016a64 64 0 0 0-84.48-5.312l-6.08 5.312L18.752 274.75199999999995a64 64 0 0 0-8 80.832l5.12 6.592 448 512a64 64 0 0 0 40.32 21.312L512 896h448z m-224-590.592l-1.984-2.752a192.512 192.512 0 0 0-125.056-72.768l-4.608-0.448 2.24-5.568c14.144-40.064 14.336-83.392 1.536-123.008l-3.648-10.176 4.48-0.576c49.92-7.04 94.72-33.6 124.992-72.768l2.048-2.688 2.048 2.752a192.512 192.512 0 0 0 125.056 72.704l4.416 0.576-2.176 5.568a192.064 192.064 0 0 0-1.472 123.008l3.584 10.176-4.48 0.448a192.512 192.512 0 0 0-124.992 72.832l-1.984 2.688zM736 704a96 96 0 1 0 0-192 96 96 0 0 0 0 192z"  horiz-adv-x="1024" />

    
    <glyph glyph-name="bda-tag-assess" unicode="&#59134;" d="M960 896a64 64 0 0 0 63.552-56.512L1024 832v-320a64 64 0 0 0-127.552-7.488L896 512V768H128v-768h192a64 64 0 0 0 63.552-56.512L384-64a64 64 0 0 0-56.512-63.552L320-128H64a64 64 0 0 0-63.552 56.512L0-64V832A64 64 0 0 0 56.512 895.552L64 896h896z m0-576a64 64 0 0 0 63.552-56.512L1024 256v-320a64 64 0 0 0-127.552-7.488L896-64v320a64 64 0 0 0 64 64z m-192-128a64 64 0 0 0 63.552-56.512L832 128v-192a64 64 0 0 0-127.552-7.488L704-64v192a64 64 0 0 0 64 64z m-192-64a64 64 0 0 0 63.552-56.512L640 64v-128a64 64 0 0 0-127.552-7.488L512-64v128a64 64 0 0 0 64 64z m230.4 563.2a64 64 0 0 0 17.216-82.88L819.2 601.6l-192-256a64 64 0 0 0-80-18.752l-6.72 3.84-138.752 92.544-92.48-138.752a64 64 0 0 0-82.304-21.504l-6.4 3.776a64 64 0 0 0-21.568 82.304l3.776 6.4 128 192a64 64 0 0 0 82.304 21.568l6.4-3.776 141.696-94.4L716.8 678.4a64 64 0 0 0 89.6 12.8z"  horiz-adv-x="1024" />

    
    <glyph glyph-name="bda-loading3" unicode="&#59125;" d="M214.72 140.928a383.232 383.232 0 0 1 279.424-140.544L512 0c16.96 0.448 29.568 1.024 37.888 1.856l-12.48 127.36a255.168 255.168 0 0 0-223.616 92.8l-99.072-81.088zM896 396.8l-0.256-0.064-127.872-4.16L768 384a255.488 255.488 0 0 0-106.688-208l74.752-103.872a383.552 383.552 0 0 1 159.68 297.472L896 396.8zM133.12 321.28l126.272 20.8A254.912 254.912 0 0 0 337.92 571.712L250.88 665.5360000000001a382.912 382.912 0 0 1-122.432-263.104L128 384c0-21.376 1.728-42.304 5.12-62.72z m364.48 446.464a384.256 384.256 0 0 1-72.64-9.6l28.928-124.8c14.08 3.328 28.608 5.376 43.328 6.208L512 640c89.216 0 170.368-45.824 216.96-120.064l108.352 68.16a383.808 383.808 0 0 1-308.288 179.52l-31.36 0.128z"  horiz-adv-x="1024" />

    
    <glyph glyph-name="bda-close3" unicode="&#59126;" d="M359.232 626.56l6.016-5.312 158.4-158.336 158.4 158.336a64 64 0 0 0 95.808-84.48l-5.312-6.016-158.336-158.4 158.336-158.4a64 64 0 0 0-84.48-95.808l-6.016 5.312-158.4 158.336-158.4-158.336a64 64 0 0 0-95.808 84.48l5.312 6.016 158.336 158.4-158.336 158.4a64 64 0 0 0 84.48 95.808z"  horiz-adv-x="1024" />

    
    <glyph glyph-name="bda-checked3" unicode="&#59127;" d="M227.2 325.504a64 64 0 0 0 84.928 95.488l5.568-4.992 135.808-135.744 316.8 316.8A64 64 0 0 0 865.728 512l-4.928-5.568-362.048-362.048a64 64 0 0 0-84.928-4.928l-5.568 4.928L227.2 325.504z"  horiz-adv-x="1024" />

    
    <glyph glyph-name="data-config" unicode="&#59124;" d="M566.272 896c60.0064 0 108.6464-45.824 108.6464-102.4v-29.7984a441.0368 441.0368 0 0 0 104.3968-56.8832l27.4432 14.8992c51.968 28.2624 118.3744 11.52 148.3776-37.4784l54.272-88.6784c30.0032-48.9984 12.2368-111.616-39.7312-139.8784l-27.392-14.9504c2.7136-18.5856 4.096-37.5296 4.096-56.832h-81.408c0 15.616-1.1264 31.0272-3.3792 46.2848l-7.5264 51.2 47.4112 25.856 27.4944 14.9504a24.832 24.832 0 0 1 9.9328 34.9696l-54.272 88.6784a28.0576 28.0576 0 0 1-37.1712 9.3696l-75.0592-40.8064-43.264 31.8976a358.2464 358.2464 0 0 1-84.7872 46.2336l-50.8928 19.456V793.6c0 14.1312-12.1856 25.6-27.136 25.6H457.6768c-14.9504 0-27.136-11.4688-27.136-25.6v-81.5616l-50.8928-19.4048a358.2464 358.2464 0 0 1-84.7872-46.2336l-43.264-31.8976-47.616 25.856-27.4944 14.9504a28.0576 28.0576 0 0 1-37.0688-9.3696l-54.272-88.6784a24.832 24.832 0 0 1 9.9328-35.0208l74.8544-40.8064-7.5264-51.2a317.4912 317.4912 0 0 1 0-92.5184l7.5264-51.2-47.4112-25.856-27.4944-14.9504a24.832 24.832 0 0 1-9.9328-34.9696l54.272-88.6784c7.5264-12.288 24.1664-16.4352 37.1712-9.3696l75.0592 40.8064 43.264-31.8976a358.2464 358.2464 0 0 1 84.7872-46.2336l50.8928-19.456V-25.600000000000023c0-14.1312 12.1856-25.6 27.136-25.6H512V-128h-54.272c-59.9552 0-108.544 45.824-108.544 102.4v29.7984a441.0368 441.0368 0 0 0-104.448 56.8832l-27.4432-14.8992c-51.968-28.2624-118.3744-11.52-148.3776 37.4784l-54.272 88.6784c-30.0032 48.9984-12.2368 111.616 39.7312 139.8784l27.392 14.9504a389.9904 389.9904 0 0 0 0 113.664l-27.392 14.9504C2.3552 484.0448-15.4112 546.6623999999999 14.592 595.6608l54.272 88.6784c30.0032 48.9984 96.4096 65.7408 148.3776 37.4784l27.4432-14.8992a441.0368 441.0368 0 0 0 104.448 56.8832V793.6c0 56.576 48.5888 102.4 108.544 102.4h108.6464z m396.032-921.6a38.4 38.4 0 1 0 0-76.8h-303.3088a38.4 38.4 0 0 0 0 76.8h303.3088z m0 153.6a38.4 38.4 0 1 0 0-76.8h-303.3088a38.4 38.4 0 0 0 0 76.8h303.3088zM512 588.8c119.9616 0 217.1904-91.648 217.1904-204.8h-81.408c0 70.656-60.8256 128-135.7824 128-74.9568 0-135.7824-57.344-135.7824-128S437.0432 256 512 256V179.20000000000005c-119.9616 0-217.1904 91.648-217.1904 204.8S392.0384 588.8 512 588.8z m450.304-307.2a38.4 38.4 0 1 0 0-76.8h-303.3088a38.4 38.4 0 0 0 0 76.8h303.3088z"  horiz-adv-x="1024" />

    
    <glyph glyph-name="bda-refresh" unicode="&#59123;" d="M384.04672 896a64 64 0 0 0 64-62.912l0.32-0.96a63.68 63.68 0 0 0-0.256-36.48L448.04672 512a64 64 0 0 0-127.552-7.488L320.04672 512V716.736a384 384 0 1 1 465.408-63.104 64 64 0 1 0 91.2 89.856A512 512 0 1 0 173.29472 768H64.04672A64 64 0 0 0 56.55872 895.552L64.04672 896h320z"  horiz-adv-x="1024" />

    
    <glyph glyph-name="bda-equity" unicode="&#59122;" d="M460.8 384v-512H102.4V384h358.4z m460.8 0v-512h-358.4V384h358.4zM857.4464 861.3888c65.4336-65.4336 33.024-184.2176-54.272-271.5648C728.4736 515.1744 630.784 480.6656 563.2 513.1264V640H460.8v-134.7584c-65.6896-17.1008-151.2448 17.5616-218.2656 84.5824C155.136 677.1712 122.8288 795.9552 188.2624 861.3888 253.5936 926.72 372.3776 894.4128 459.776 807.1168a341.3504 341.3504 0 0 0 63.1296-85.8624 338.8416 338.8416 0 0 0 63.0272 85.8112C673.28 894.464 792.064 926.7712 857.4464 861.3376z m-199.1168-126.72c-52.6336-52.6336-68.864-112.128-54.272-126.72 14.5408-14.5408 74.0352 1.6896 126.6688 54.272 52.6848 52.6848 68.9152 112.1792 54.3232 126.7712-14.5408 14.5408-74.0864-1.6896-126.72-54.3232zM260.608 788.9408c-14.5408-14.5408 1.6896-74.0352 54.3232-126.6688C367.616 609.6384 427.0592 593.408 441.6512 607.9488c14.5408 14.5408-1.6896 74.0864-54.272 126.72-52.6848 52.6336-112.1792 68.864-126.7712 54.272zM1024 640v-204.8h-460.8V640h460.8zM460.8 435.2H0V640h460.8v-204.8z"  horiz-adv-x="1024" />

    
    <glyph glyph-name="bda-excute-start" unicode="&#59121;" d="M512 896a512 512 0 1 1 0-1024A512 512 0 0 1 512 896z m0-128a384 384 0 1 0 0-768A384 384 0 0 0 512 768zM688.128 330.75199999999995l-204.608-136.448A64 64 0 0 0 384 247.67999999999995V520.3199999999999a64 64 0 0 0 99.52 53.312l204.608-136.448a64 64 0 0 0 0-106.496z"  horiz-adv-x="1024" />

    
    <glyph glyph-name="bda-assess" unicode="&#59118;" d="M512.176384 844.670852V520.174175c0-87.754387 45.873938-133.269935 102.397184-133.269935h355.113435c30.821552 0 54.680096-27.084055 51.198592-57.700813-32.613503-285.278555-303.710048-502.565379-606.54972-444.915765-203.053616 38.55254-366.223529 201.722453-404.827267 404.776069C-48.089808 591.903403 169.197016 862.999948 454.475571 895.613451A51.556982 51.556982 0 0 0 512.176384 844.670852z m160.405189 50.072223a409.588736 409.588736 0 0 0 347.433646-347.433646c4.403079-30.616758-20.172245-58.008005-51.096195-58.008005H665.772161a51.198592 51.198592 0 0 0-51.198593 51.198592V843.64688c0 30.92395 27.391247 55.499274 58.008005 51.096195z"  horiz-adv-x="1024" />

    
    <glyph glyph-name="bda-more-vertical" unicode="&#59116;" d="M512 170.66666699999996a128 128 0 1 0 0-256 128 128 0 0 0 0 256z m0 341.333333a128 128 0 1 0 0-256 128 128 0 0 0 0 256z m0 341.333333a128 128 0 1 0 0-256 128 128 0 0 0 0 256z"  horiz-adv-x="1024" />

    
    <glyph glyph-name="bda-upload" unicode="&#59117;" d="M998.4 384a25.6 25.6 0 0 0 25.4208-22.6048L1024 358.4v-358.4a76.8 76.8 0 0 0-72.2944-76.672L947.2-76.79999999999995H76.8a76.8 76.8 0 0 0-76.672 72.2944L0 0V358.4a25.6 25.6 0 0 0 51.0208 2.9952L51.2 358.4v-358.4a25.6 25.6 0 0 1 22.6048-25.4208L76.8-25.600000000000023h870.4a25.6 25.6 0 0 1 25.4208 22.6048L972.8 0V358.4a25.6 25.6 0 0 0 25.6 25.6zM512 844.8l0.4864-0.0256h1.024l0.768-0.0768L512 844.8a25.8048 25.8048 0 0 0 15.232-5.0176c1.024-0.768 1.9712-1.5616 2.8672-2.4832l-2.304 2.048 0.2048-0.1792 2.0992-1.8688 179.2-179.2 2.1248-2.4064a25.6 25.6 0 0 0-38.3232-33.792L537.6 757.376V153.60000000000002a25.6 25.6 0 0 0-51.0208-2.9952L486.4 153.60000000000002V757.376l-135.5008-135.4752a25.6 25.6 0 0 0-38.3232 33.792l2.1248 2.4064 179.2 179.2 2.0992 1.8688 0.2048 0.1792-2.304-2.048a25.8048 25.8048 0 0 0 16.5888 7.4496l1.024 0.0512H512z"  horiz-adv-x="1024" />

    
    <glyph glyph-name="bda-default-image" unicode="&#59119;" d="M938.666667 896a85.333333 85.333333 0 0 0 85.333333-85.333333v-853.333334a85.333333 85.333333 0 0 0-85.333333-85.333333H85.333333a85.333333 85.333333 0 0 0-85.333333 85.333333V810.666667a85.333333 85.333333 0 0 0 85.333333 85.333333h853.333334zM42.666667 95.530667V-42.66666699999996a42.666667 42.666667 0 0 1 39.466666-42.56L85.333333-85.33333300000004h501.162667c-93.504 215.914667-195.626667 327.744-303.765333 338.56C170.773333 264.469333 92.032 213.205333 42.666667 95.55200000000002zM752.32 465.28c-91.904-15.872-179.861333-114.474667-261.333333-298.368 50.090667-62.058667 97.301333-146.24 141.909333-252.224H938.666667a42.666667 42.666667 0 0 1 42.56 39.466667L981.333333-42.66666699999996V373.696l-0.426666 0.512c-62.08 76.970667-137.365333 106.794667-228.586667 91.050667zM938.666667 853.333333H85.333333a42.666667 42.666667 0 0 1-42.56-39.466666L42.666667 810.666667v-625.514667c57.578667 83.52 139.669333 121.024 244.330666 110.549333 61.141333-6.122667 118.72-37.461333 173.034667-93.653333 84.629333 184.426667 178.88 286.933333 285.034667 305.258667 91.157333 15.722667 170.474667-8.149333 236.288-70.613334L981.333333 810.666667a42.666667 42.666667 0 0 1-39.466666 42.56L938.666667 853.333333zM277.333333 725.333333a106.666667 106.666667 0 1 0 0-213.333333 106.666667 106.666667 0 0 0 0 213.333333z m0-42.666666a64 64 0 1 1 0-128 64 64 0 0 1 0 128z"  horiz-adv-x="1024" />

    
    <glyph glyph-name="bda-download" unicode="&#59120;" d="M960 320a64 64 0 0 0 63.552-56.512L1024 256v-128a192 192 0 0 0-180.736-191.68L832-64H192a192 192 0 0 0-191.68 180.736L0 128v128a64 64 0 0 0 127.552 7.488L128 256v-128a64 64 0 0 1 56.512-63.552L192 64h640a64 64 0 0 1 63.552 56.512L896 128v128a64 64 0 0 0 64 64zM512 896a64 64 0 0 0 63.552-56.512L576 832v-357.376l82.752 82.624 6.016 5.312a64 64 0 0 0 84.48-95.808l-192-192a64.384 64.384 0 0 0-5.632-5.056l5.632 5.056a64.512 64.512 0 0 0-25.28-15.552l-1.28-0.448a63.872 63.872 0 0 0-4.032-1.088l-1.664-0.32A64.192 64.192 0 0 0 512 256h-2.048l-3.456 0.256-1.92 0.192-1.728 0.192a64.192 64.192 0 0 0-5.504 1.024l-2.048 0.512a63.872 63.872 0 0 0-1.92 0.64l-1.28 0.384a63.552 63.552 0 0 0-25.344 15.552l-192 192a64 64 0 0 0 84.48 95.808l6.016-5.312L448 474.56V832a64 64 0 0 0 64 64z"  horiz-adv-x="1024" />

    
    <glyph glyph-name="bda-portrait-old" unicode="&#58957;" d="M0 896v-1024h1024V896z m512-153.6a179.2 179.2 0 1 0-179.2-179.2A179.2 179.2 0 0 0 512 742.4zM189.44 25.600000000000023a322.56 322.56 0 1 0 645.12 0z"  horiz-adv-x="1024" />

    
    <glyph glyph-name="bda-tag-portrait-old" unicode="&#58958;" d="M0 896h460.8v-614.4H0zM563.2 486.4h460.8v-614.4h-460.8zM0 179.20000000000005h460.8v-307.2H0zM563.2 896h460.8v-307.2h-460.8z"  horiz-adv-x="1024" />

    
    <glyph glyph-name="bda-requirement-old" unicode="&#58959;" d="M460.8 680.96v-225.28h102.4V680.96L655.36 588.8l71.68 71.68-143.36 143.36L512 875.52 440.32 803.84 296.96 660.48 368.64 588.8zM870.4 711.6800000000001l-153.6-358.4H307.2l-153.6 358.4H0v-819.2h1024v819.2h-153.6z m-51.2-716.8H204.8v51.2h614.4v-51.2z m0 204.8H204.8v51.2h614.4v-51.2z"  horiz-adv-x="1024" />

    
    <glyph glyph-name="bda-tag-plan-old" unicode="&#58960;" d="M204.8 896L0-128h512L307.2 896H204.8zM910.336 497.664L824.832 896H398.336l84.992-398.336h427.008zM921.6 384h-409.6l102.4-512h409.6l-102.4 512z"  horiz-adv-x="1024" />

    
    <glyph glyph-name="bda-tag-maintain-old" unicode="&#58961;" d="M834.56 343.03999999999996l184.32 184.32-107.52 107.52-107.52-107.52-112.64 35.84-35.84 112.64L768 783.36 655.36 890.88 471.04 706.56l40.96-179.2-506.88-506.88 143.36-143.36 506.88 506.88zM148.48 527.36l117.76-117.76 76.8 71.68-122.88 117.76V675.84L76.8 747.52 5.12 675.84l71.68-148.48zM499.4048 103.98720000000003l144.7936 144.7936 228.096-228.0448-144.7936-144.8448z"  horiz-adv-x="1024" />

    
    <glyph glyph-name="bda-tag-market-old" unicode="&#58962;" d="M1024 76.79999999999995V896H0v-819.2h460.8v-102.4H0v-102.4h1024v102.4h-460.8v102.4zM768 691.2h102.4v-460.8h-102.4z m-204.8-204.8h102.4v-256h-102.4z m-307.2-256H153.6V742.4h102.4z m102.4 0V588.8h102.4v-358.4z"  horiz-adv-x="1024" />

    
    <glyph glyph-name="bda-strategy-monitor-old" unicode="&#58974;" d="M819.2 8.70399999999995H204.8A68.608 68.608 0 0 1 204.8-128h614.4a68.608 68.608 0 0 1 0 136.704zM955.904 896H68.096A68.608 68.608 0 0 1 0 827.904V179.20000000000005a68.096 68.096 0 0 1 68.096-68.096h887.808A68.096 68.096 0 0 1 1024 179.20000000000005V827.904A68.608 68.608 0 0 1 955.904 896z m-102.4-460.8h-90.112l-87.04-121.344a70.656 70.656 0 0 0-122.88 6.656L409.6 580.608 348.16 453.12a51.2 51.2 0 0 0-45.568-28.672H188.928a51.2 51.2 0 0 0 0 102.4h81.92l77.824 157.184a66.56 66.56 0 0 0 121.856 0l150.016-274.432 74.752 102.4a51.2 51.2 0 0 0 41.472 25.6h116.736a51.2 51.2 0 0 0 0-102.4z"  horiz-adv-x="1024" />

    
    <glyph glyph-name="bda-tag-assess-old" unicode="&#59110;" d="M312.32-35.84000000000003v220.16l512 506.88V896H5.12v-1024h819.2v384l-291.84-291.84H312.32zM107.52 793.6h614.4v-51.2h-614.4V793.6z m0-153.6h512v-51.2h-512V640z m0-153.6h307.2v-51.2h-307.2V486.4z m102.4-512h-102.4v51.2h102.4v-51.2zM368.64 20.480000000000018H512l506.88 506.88-143.36 143.36-506.88-506.88z"  horiz-adv-x="1024" />

    
    <glyph glyph-name="bda-resource-manage-old" unicode="&#59111;" d="M1024 588.8L512 896 0 588.8l512-307.2 512 307.2zM512 179.20000000000005L85.504 435.2 0 384l512-307.2 512 307.2-85.504 51.2L512 179.20000000000005zM512-25.600000000000023l-426.496 256L0 179.20000000000005l512-307.2 512 307.2-85.504 51.2L512-25.600000000000023z"  horiz-adv-x="1024" />

    
    <glyph glyph-name="bda-menu-default-old" unicode="&#59112;" d="M921.6 384c0 20.48 0 35.84-5.12 56.32l92.16 51.2-153.6 266.24-92.16-51.2c-30.72 25.6-61.44 40.96-97.28 56.32V870.4H358.4v-107.52c-35.84-15.36-66.56-30.72-97.28-56.32l-92.16 51.2-153.6-266.24 92.16-51.2c-5.12-35.84-5.12-71.68 0-112.64L15.36 271.36l153.6-266.24 92.16 51.2c30.72-25.6 61.44-40.96 97.28-56.32v-107.52h307.2v107.52c35.84 15.36 66.56 35.84 97.28 56.32l92.16-56.32 153.6 266.24-92.16 51.2c5.12 25.6 5.12 46.08 5.12 66.56z m-204.8 0c0-112.64-92.16-204.8-204.8-204.8s-204.8 92.16-204.8 204.8 92.16 204.8 204.8 204.8 204.8-92.16 204.8-204.8z"  horiz-adv-x="1024" />

    
    <glyph glyph-name="bda-strategy-design-old" unicode="&#59113;" d="M1001.025483 608.804617a79.349883 79.349883 0 0 1 0 112.625641l-153.580418 153.580418a82.421491 82.421491 0 0 1-114.161445 0l-156.652027-153.580418 267.741863-264.15832zM296.603297 855.557156a89.588577 89.588577 0 0 1-124.912074 0L26.30176 712.215433A85.4931 85.4931 0 0 1 26.30176 588.839163l69.111189-67.063449 127.471747 125.935943a44.026387 44.026387 0 0 0 61.944102 0 42.490582 42.490582 0 0 0 0-61.432168L157.357051 460.343546 219.301153 399.423314l76.278275 74.74247a44.026387 44.026387 0 0 0 63.479906 0 43.514452 43.514452 0 0 0 0-61.432168L281.75719 337.99114599999996l61.944102-60.920233 127.471747 125.424009a44.026387 44.026387 0 0 0 61.944102 0 41.978648 41.978648 0 0 0 0-60.920233l-127.471747-125.935943 62.456037-60.920233L543.867771 230.48485300000004a44.026387 44.026387 0 0 0 61.944102 0 43.514452 43.514452 0 0 0 0-61.432167l-75.254405-74.230536 61.944102-60.920232L717.413644 157.790122a44.026387 44.026387 0 0 0 61.944102 0 43.514452 43.514452 0 0 0 0-61.432168l-127.471748-125.424008 74.742471-73.206666a88.052773 88.052773 0 0 1 124.400139 0l145.389463 142.829789a86.005034 86.005034 0 0 1 0 122.864335zM105.651643 255.05772000000002a139.246246 139.246246 0 0 1-35.835431-57.848624l-66.551514-239.073518a54.265081 54.265081 0 0 1 69.111188-67.575384l242.657061 65.527645a144.365593 144.365593 0 0 1 58.360559 34.811561l60.408298 59.384429-267.741863 264.670254z"  horiz-adv-x="1024" />

    
    <glyph glyph-name="bda-strategy-assess-old" unicode="&#59114;" d="M870.4 793.6h-215.04C629.76 875.52 537.6 916.48 460.8 885.76c-46.08-15.36-76.8-51.2-92.16-92.16H153.6c-56.32 0-102.4-46.08-102.4-102.4v-716.8c0-56.32 46.08-102.4 102.4-102.4h716.8c56.32 0 102.4 46.08 102.4 102.4V691.2c0 56.32-46.08 102.4-102.4 102.4z m-358.4 0c30.72 0 51.2-20.48 51.2-51.2s-20.48-51.2-51.2-51.2-51.2 20.48-51.2 51.2 20.48 51.2 51.2 51.2zM409.6 76.79999999999995l-204.8 204.8 71.68 71.68L409.6 220.15999999999997l337.92 337.92L819.2 486.4l-409.6-409.6z"  horiz-adv-x="1024" />

    
    <glyph glyph-name="bda-tag-renew-old" unicode="&#59115;" d="M384 716.8c107.52 40.96 225.28 25.6 317.44-40.96l-71.68-117.76h322.56L834.56 896l-61.44-97.28C640 885.76 476.16 901.12 332.8 849.92 128 768 5.12 563.2 30.72 348.15999999999997h143.36c-25.6 153.6 61.44 307.2 209.92 368.64zM849.92 430.08zM993.28 430.08h-143.36c30.72-184.32-92.16-353.28-276.48-389.12-81.92-15.36-168.96 5.12-235.52 46.08l66.56 107.52-348.16 20.48L204.8-128l61.44 102.4c128-81.92 286.72-102.4 424.96-46.08 204.8 81.92 327.68 286.72 302.08 501.76z"  horiz-adv-x="1024" />

    
    <glyph glyph-name="bda-close2" unicode="&#59107;" d="M919.722667 14.677332999999976a42.666667 42.666667 0 0 0-54.442667-65.28l-5.888 4.864-768 768a42.666667 42.666667 0 0 0 54.442667 65.28l5.973333-4.864 768-768zM932.266667 812.8a42.666667 42.666667 0 0 0 4.864-54.442667l-4.864-5.888-768-768a42.666667 42.666667 0 0 0-65.28 54.442667l4.949333 5.973333 768 768a42.666667 42.666667 0 0 0 60.330667 0z"  horiz-adv-x="1024" />

    
    <glyph glyph-name="bda-show-all-node2" unicode="&#59108;" d="M870.4 896a153.6 153.6 0 0 0 153.6-153.6v-716.8a153.6 153.6 0 0 0-153.6-153.6H153.6a153.6 153.6 0 0 0-153.6 153.6V742.4a153.6 153.6 0 0 0 153.6 153.6z m0-102.4H153.6a51.2 51.2 0 0 1-51.2-51.2v-716.8a51.2 51.2 0 0 1 51.2-51.2h716.8a51.2 51.2 0 0 1 51.2 51.2V742.4a51.2 51.2 0 0 1-51.2 51.2z m-102.4-460.8a51.2 51.2 0 0 0 5.9904-102.0416L768 230.39999999999998h-102.4v-102.4a51.2 51.2 0 0 0-102.0416-5.9904L563.2 128v102.4a102.4 102.4 0 0 0 94.72 102.144L665.6 332.79999999999995h102.4zM409.6 691.2a51.2 51.2 0 0 0 50.8416-45.2096L460.8 640v-102.4a102.4 102.4 0 0 0-94.72-102.144L358.4 435.2H256a51.2 51.2 0 0 0-5.9904 102.0416L256 537.6h102.4V640a51.2 51.2 0 0 0 51.2 51.2z"  horiz-adv-x="1024" />

    
    <glyph glyph-name="bda-auto-layout2" unicode="&#59109;" d="M921.6 896a102.4 102.4 0 0 0 102.4-102.4v-256a102.4 102.4 0 0 0-102.4-102.4h-153.6a102.4 102.4 0 0 0-102.4 102.4V588.8h-102.4v-409.6h102.4v51.2a102.4 102.4 0 0 0 94.72 102.144L768 332.79999999999995h153.6a102.4 102.4 0 0 0 102.4-102.4v-256a102.4 102.4 0 0 0-102.4-102.4h-153.6a102.4 102.4 0 0 0-102.4 102.4v102.4h-153.6a51.2 51.2 0 0 0-50.8416 45.2096L460.8 128v204.8H358.4v-102.4a102.4 102.4 0 0 0-94.72-102.144L256 128H102.4a102.4 102.4 0 0 0-102.4 102.4V537.6a102.4 102.4 0 0 0 102.4 102.4h153.6a102.4 102.4 0 0 0 102.4-102.4v-102.4h102.4V640a51.2 51.2 0 0 0 51.2 51.2h153.6V793.6A102.4 102.4 0 0 0 760.32 895.744L768 896z m0-665.6h-153.6v-256h153.6v256zM256 537.6H102.4v-307.2h153.6V537.6z m665.6 256h-153.6v-256h153.6V793.6z"  horiz-adv-x="1024" />

    
    <glyph glyph-name="bda-analyze-index" unicode="&#58954;" d="M384 896a256 256 0 0 0 185.984-432A383.808 383.808 0 0 0 768 128c0-192.64-110.464-250.752-349.056-255.68L384-128c-262.784 0-384 54.272-384 256a383.872 383.872 0 0 0 198.08 336.064A256 256 0 0 0 384 896z m341.312-14.592a256.064 256.064 0 0 0 100.544-417.408A383.68 383.68 0 0 0 1024 128c0-126.72-62.336-204.608-174.656-236.16a64 64 0 1 0-34.56 123.264C873.088 31.488000000000056 896 60.15999999999997 896 128a256.192 256.192 0 0 1-153.6 234.752 64 64 0 0 0-38.272 55.936l-3.328 1.92a64 64 0 0 0 3.328 108.544 128 128 0 0 1-12.16 227.84l-9.28 3.712a64 64 0 0 0 42.624 120.704zM384 384a256 256 0 0 1-256-256c0-96.896 49.664-124.8 222.208-127.744L384 0c199.936 0 256 25.088 256 128a256 256 0 0 1-256 256z m0 384a128 128 0 1 1 0-256 128 128 0 0 1 0 256z"  horiz-adv-x="1024" />

    
    <glyph glyph-name="bda-third-menu-default" unicode="&#59106;" d="M589.696 896c50.048 0 92.48-36.8 99.52-86.4l7.808-54.72a32 32 0 0 1 43.584-25.152l51.392 20.608a100.544 100.544 0 0 0 124.544-43.072l77.696-134.528a100.544 100.544 0 0 0-24.96-129.408l-43.52-34.112a32 32 0 0 1-0.064-50.368l43.52-34.176c39.424-30.912 50.048-86.08 25.024-129.408l-77.696-134.528a100.544 100.544 0 0 0-124.544-43.072l-51.328 20.672a32 32 0 0 1-43.648-25.216l-7.808-54.784A100.544 100.544 0 0 0 589.696-128H434.304a100.544 100.544 0 0 0-99.52 86.4l-7.872 54.72a32 32 0 0 1-43.584 25.216l-51.328-20.672a100.544 100.544 0 0 0-124.544 43.072L29.76 195.264a100.544 100.544 0 0 0 24.96 129.408l43.52 34.176a32 32 0 0 1 0 50.304l-43.52 34.176a100.544 100.544 0 0 0-24.96 129.408l77.696 134.528a100.544 100.544 0 0 0 124.544 43.072l51.328-20.608a32 32 0 0 1 43.584 25.152l7.872 54.784C341.76 859.2 384.256 896 434.304 896z m0-64H434.304a36.544 36.544 0 0 1-36.16-31.36l-7.872-54.848a96 96 0 0 0-130.752-75.52l-51.392 20.672a36.544 36.544 0 0 1-45.248-15.68L85.12 540.736a36.544 36.544 0 0 1 9.088-47.04l43.52-34.176a96 96 0 0 0 0-151.04l-43.52-34.176a36.544 36.544 0 0 1-9.088-47.04l77.696-134.528c9.088-15.744 28.352-22.4 45.248-15.68l51.328 20.608a96 96 0 0 0 130.816-75.456l7.872-54.784c2.56-18.048 17.984-31.424 36.16-31.424h155.392c18.176 0 33.6 13.44 36.16 31.36l7.808 54.784a96 96 0 0 0 130.816 75.52l51.392-20.608a36.544 36.544 0 0 1 45.248 15.68l77.696 134.528a36.544 36.544 0 0 1-9.088 47.04l-43.52 34.24a96 96 0 0 0 0 151.04l43.52 34.112a36.544 36.544 0 0 1 9.088 47.04l-77.696 134.528a36.544 36.544 0 0 1-45.312 15.68l-51.328-20.608A96 96 0 0 0 633.6 745.856l-7.808 54.72A36.544 36.544 0 0 1 589.696 832zM512 576a192 192 0 1 0 0-384 192 192 0 0 0 0 384z m0-64a128 128 0 1 1 0-256 128 128 0 0 1 0 256z"  horiz-adv-x="1024" />

    
    <glyph glyph-name="user" unicode="&#59105;" d="M512 896a319.9948 319.9948 0 0 0 213.308534-558.518924 511.671685 511.671685 0 0 0 293.49923-392.377624 63.99896 63.99896 0 1 0-126.71794-18.175705 384.057759 384.057759 0 0 1-760.179648 0 63.99896 63.99896 0 0 0-126.71794 18.175705 511.927681 511.927681 0 0 0 293.563229 392.441623A319.9948 319.9948 0 0 0 512 896z m0-127.99792a191.99688 191.99688 0 1 1 0-383.99376 191.99688 191.99688 0 0 1 0 383.99376z"  horiz-adv-x="1024" />

    
    <glyph glyph-name="password" unicode="&#58952;" d="M512 896a320 320 0 0 0 319.68-306.112L832 576v-74.944c74.624-26.368 128-97.472 128-181.056v-256a192 192 0 0 0-192-192H256a192 192 0 0 0-192 192V320c0 83.584 53.44 154.752 128 181.12V576a320 320 0 0 0 320 320z m256-512H256a64 64 0 0 1-64-64v-256a64 64 0 0 1 64-64h512a64 64 0 0 1 64 64V320a64 64 0 0 1-64 64zM512 768a192 192 0 0 1-191.68-180.736L320 576v-64h384V576a192 192 0 0 1-192 192z"  horiz-adv-x="1024" />

    
    <glyph glyph-name="bda-notice" unicode="&#59104;" d="M512 896a384 384 0 0 1-384-384v-192c0-128-64-128-64-128a64 64 0 0 1 0-128h896a64 64 0 0 1 0 128s-64 0-64 128V512a384 384 0 0 1-384 384zM384 0a128 128 0 0 1 256 0H384z"  horiz-adv-x="1024" />

    
    <glyph glyph-name="bda-strategy-node-group-analyze" unicode="&#58944;" d="M384 896a256 256 0 0 0 185.984-432A383.808 383.808 0 0 0 768 128c0-187.904-105.152-247.872-331.84-255.232l-17.216-0.448L384-128l-34.944 0.32C110.464-122.75199999999995 0-64.57600000000002 0 128a383.872 383.872 0 0 0 198.08 336.064A256 256 0 0 0 384 896z m341.312-14.592a256.064 256.064 0 0 0 100.544-417.408A383.68 383.68 0 0 0 1024 128c0-126.72-62.336-204.608-174.656-236.16a64 64 0 1 0-34.56 123.264C873.088 31.488000000000056 896 60.15999999999997 896 128a256.192 256.192 0 0 1-153.6 234.752 64 64 0 0 0-38.272 55.936l-3.328 1.92a64 64 0 0 0 3.328 108.544 128 128 0 0 1-12.16 227.84l-9.28 3.712a64 64 0 0 0 42.624 120.704zM384 384a256 256 0 0 1-256-256c0-93.76 46.464-122.88 205.888-127.36l16.32-0.384L384 0l33.792 0.256C590.336 3.2000000000000455 640 31.104000000000042 640 128a256 256 0 0 1-256 256z m0 384a128 128 0 1 1 0-256 128 128 0 0 1 0 256z"  horiz-adv-x="1024" />

    
    <glyph glyph-name="bda-add-large" unicode="&#58920;" d="M512 896a64 64 0 0 0 63.552-56.512L576 832v-384h384a64 64 0 0 0 7.488-127.552L960 320H576v-384a64 64 0 0 0-127.552-7.488L448-64V320H64a64 64 0 0 0-7.488 127.552L64 448h384V832a64 64 0 0 0 64 64z"  horiz-adv-x="1024" />

    
    <glyph glyph-name="bda-strategy-node-copy" unicode="&#58945;" d="M832 576a192 192 0 0 0 191.68-180.736L1024 384v-320a192 192 0 0 0-180.736-191.68L832-128H512a192 192 0 0 0-191.68 180.736L320 64v128H192A192 192 0 0 0 0.32 372.736L0 384V704A192 192 0 0 0 180.736 895.68L192 896h320a192 192 0 0 0 191.68-180.736L704 704v-128h128z m0-128H512c-32.768 0-59.84-24.768-63.552-56.512L448 384v-320c0-32.768 24.768-59.84 56.512-63.552L512 0h320c32.768 0 59.84 24.768 63.552 56.512L896 64V384c0 32.768-24.768 59.84-56.512 63.552L832 448zM576 704c0 32.768-24.768 59.84-56.512 63.552L512 768H192c-32.768 0-59.84-24.768-63.552-56.512L128 704v-320c0-32.768 24.768-59.84 56.512-63.552L192 320h128V384a192 192 0 0 0 180.736 191.68L512 576h64V704z"  horiz-adv-x="1024" />

    
    <glyph glyph-name="bda-strategy-node-form-mode" unicode="&#58946;" d="M768 896a192 192 0 0 0 191.68-180.736L960 704v-640a192 192 0 0 0-180.736-191.68L768-128H256a192 192 0 0 0-191.68 180.736L64 64V704A192 192 0 0 0 244.736 895.68L256 896h512z m0-128H256c-32.768 0-59.84-24.768-63.552-56.512L192 704v-640c0-32.768 24.768-59.84 56.512-63.552L256 0h512c32.768 0 59.84 24.768 63.552 56.512L832 64V704c0 32.768-24.768 59.84-56.512 63.552L768 768z m-192-512a64 64 0 0 0 7.488-127.552L576 128H320a64 64 0 0 0-7.488 127.552L320 256h256zM448 448a64 64 0 0 0 7.488-127.552L448 320H320a64 64 0 0 0-7.488 127.552L320 448h128z m256 192a64 64 0 0 0 7.488-127.552L704 512H320a64 64 0 0 0-7.488 127.552L320 640h384z"  horiz-adv-x="1024" />

    
    <glyph glyph-name="bda-strategy-node-delete" unicode="&#58949;" d="M640 896a64 64 0 0 0 63.552-56.512L704 832v-64h256a64 64 0 0 0 7.488-127.552L960 640h-64v-576a192 192 0 0 0-180.736-191.68L704-128H320a192 192 0 0 0-191.68 180.736L128 64V640H64a64 64 0 0 0-7.488 127.552L64 768h256V832a64 64 0 0 0 56.512 63.552L384 896h256z m128-256H256v-576c0-30.272 21.12-55.68 49.28-62.336l7.232-1.28L320 0h384c32.768 0 59.84 24.768 63.552 56.512L768 64V640zM384 512a64 64 0 0 0 63.552-56.512L448 448v-256a64 64 0 0 0-127.552-7.488L320 192V448a64 64 0 0 0 64 64z m256 0a64 64 0 0 0 63.552-56.512L704 448v-256a64 64 0 0 0-127.552-7.488L576 192V448a64 64 0 0 0 64 64z"  horiz-adv-x="1024" />

    
    <glyph glyph-name="bda-strategy-node-edit" unicode="&#58950;" d="M697.536 832c29.12 0 58.24-9.856 81.92-29.568l8.576-7.872 181.056-181.056a128 128 0 0 0 7.488-172.8l-7.488-8.192-543.104-543.104H64V251.51999999999998l543.04 543.04c25.024 24.96 57.728 37.44 90.496 37.44z m181.056-308.992L697.536 704 335.488 342.01599999999996l180.992-181.12-90.496-90.432-180.992 180.992-52.992-52.992v-181.056h180.992l505.6 505.6z"  horiz-adv-x="1024" />

    
    <glyph glyph-name="bda-strategy-execute" unicode="&#58929;" d="M320 896H128C57.6 896 0 838.4 0 768v-192c0-70.4 57.6-128 128-128h192c70.4 0 128 57.6 128 128V768c0 70.4-57.6 128-128 128z m0-320H128V768h192v-192z m576 320h-192C633.6 896 576 838.4 576 768v-192c0-70.4 57.6-128 128-128h192c70.4 0 128 57.6 128 128V768c0 70.4-57.6 128-128 128z m0-320h-192V768h192v-192zM320 320H128c-70.4 0-128-57.6-128-128v-192c0-70.4 57.6-128 128-128h192c70.4 0 128 57.6 128 128v192c0 70.4-57.6 128-128 128z m0-320H128v192h192v-192z m576 320h-192c-70.4 0-128-57.6-128-128v-192c0-70.4 57.6-128 128-128h192c70.4 0 128 57.6 128 128v192c0 70.4-57.6 128-128 128z m0-320h-192v192h192v-192z"  horiz-adv-x="1024" />

    
    <glyph glyph-name="bda-strategy-basic" unicode="&#58942;" d="M832 896a192 192 0 0 0 192-192v-640a192 192 0 0 0-192-192H192a192 192 0 0 0-192 192V704a192 192 0 0 0 192 192z m0-128H192a64 64 0 0 1-64-64v-640a64 64 0 0 1 64-64h640a64 64 0 0 1 64 64V704a64 64 0 0 1-64 64zM384 384a64 64 0 0 0 63.552-56.512L448 320v-64h320a64 64 0 0 0 7.488-127.552L768 128H448a64 64 0 0 0-127.552-7.488L320 128H256a64 64 0 0 0-7.488 127.552L256 256h64V320a64 64 0 0 0 64 64z m256 320a64 64 0 0 0 63.552-56.512L704 640h64a64 64 0 0 0 7.488-127.552L768 512h-64v-64a64 64 0 0 0-127.552-7.488L576 448V512H256a64 64 0 0 0-7.488 127.552L256 640h320a64 64 0 0 0 64 64z"  horiz-adv-x="1024" />

    
    <glyph glyph-name="bda-menu-default" unicode="&#58943;" d="M584.512 896a128 128 0 0 0 126.72-109.888l6.528-45.76 42.88 17.216a128 128 0 0 0 158.528-54.784l72.512-125.568a128 128 0 0 0-31.872-164.672L923.456 384l36.352-28.544a128 128 0 0 0 31.872-164.672l-72.512-125.568a128 128 0 0 0-158.528-54.784l-42.88 17.28-6.528-45.824A128 128 0 0 0 584.512-128H439.488a128 128 0 0 0-126.72 109.888l-6.528 45.76-42.88-17.216a128 128 0 0 0-158.528 54.784L32.32 190.784a128 128 0 0 0 31.808 164.672L100.48 384l-36.288 28.544a128 128 0 0 0-31.872 164.672l72.512 125.568a128 128 0 0 0 158.528 54.784l42.88-17.216 6.528 45.76A128 128 0 0 0 439.488 896z m-0.064-128H439.488l-6.528-45.76A128 128 0 0 0 258.56 621.568l-42.88 17.216-72.512-125.568 36.416-28.544a128 128 0 0 0 0-201.344l-36.416-28.544 72.512-125.568 42.88 17.216a128 128 0 0 0 174.4-100.608l6.528-45.824h145.024l6.528 45.696a128 128 0 0 0 174.4 100.736l42.88-17.216 72.512 125.568-36.416 28.544a128 128 0 0 0 0.064 201.408l36.352 28.48-72.512 125.568-42.944-17.28a128 128 0 0 0-174.336 100.8L584.448 768zM512 576a192 192 0 1 0 0-384 192 192 0 0 0 0 384z m0-128a64 64 0 1 1 0-128 64 64 0 0 1 0 128z"  horiz-adv-x="1024" />

    
    <glyph glyph-name="bda-strategy-index" unicode="&#58941;" d="M393.3597 875.545L38.1317 718.25c-50.747-22.461-50.747-94.518 0-116.98L389.7757 445.317c80.696-30.333 166.127-28.413 241.895 4.096l353.436 151.536c51.707 22.142 51.707 95.478 0 117.62L631.6707 870.042a320.223 320.223 0 0 1-238.311 5.503zM797.5417 659.76l-216.298-92.79-12.542-4.8a192.3 192.3 0 0 0-130.547 1.536L221.8567 659.76l219.818 97.398a190.764 190.764 0 0 0 139.57-4.735l216.297-92.663zM935.8957 207.07000000000005a63.993 63.993 0 0 0 54.906-115.38l-6.783-3.2-337.245-136.817a320.287 320.287 0 0 0-252.774-14.463l-16.319 6.464L38.8357 88.93799999999999a63.993 63.993 0 0 0 43.388 120.18l7.039-2.56 338.781-145.265c47.931-20.478 102.006-20.478 153.264 1.023l12.8 5.888L935.8307 207.07000000000005zM935.8957 463.043a63.993 63.993 0 0 0 54.906-115.38l-6.783-3.2-337.245-136.817a320.287 320.287 0 0 0-252.774-14.463l-16.319 6.463L38.8357 344.91200000000003a63.993 63.993 0 0 0 43.388 120.18l7.039-2.56 338.781-145.266c47.931-20.478 102.006-20.478 153.264 1.024l12.8 5.888 341.724 138.865z"  horiz-adv-x="1024" />

    
    <glyph glyph-name="bda-zom-max" unicode="&#59097;" d="M460.8 896a460.8 460.8 0 0 0 460.8-460.8 458.8544 458.8544 0 0 0-100.7616-287.5904l188.16-188.2112a51.2 51.2 0 0 0-67.584-76.6464l-4.8128 4.2496-188.2112 188.16A458.8544 458.8544 0 0 0 460.8-25.600000000000023a460.8 460.8 0 0 0-460.8 460.8 460.8 460.8 0 0 0 460.8 460.8z m0-102.4a358.4 358.4 0 1 1 0-716.8A358.4 358.4 0 0 1 460.8 793.6z m0-102.4a51.2 51.2 0 0 0 50.8416-45.2096L512 640v-153.6h153.6a51.2 51.2 0 0 0 5.9904-102.0416L665.6 384h-153.6v-153.6a51.2 51.2 0 0 0-102.0416-5.9904L409.6 230.39999999999998v153.6H256a51.2 51.2 0 0 0-5.9904 102.0416L256 486.4h153.6V640a51.2 51.2 0 0 0 51.2 51.2z"  horiz-adv-x="1024" />

    
    <glyph glyph-name="bda-zoom-min" unicode="&#59098;" d="M460.8 896a460.8 460.8 0 0 0 460.8-460.8 458.8544 458.8544 0 0 0-100.7616-287.5904l188.16-188.2112a51.2 51.2 0 0 0-67.584-76.6464l-4.8128 4.2496-188.2112 188.16A458.8544 458.8544 0 0 0 460.8-25.600000000000023a460.8 460.8 0 0 0-460.8 460.8 460.8 460.8 0 0 0 460.8 460.8z m0-102.4a358.4 358.4 0 1 1 0-716.8A358.4 358.4 0 0 1 460.8 793.6z m204.8-307.2a51.2 51.2 0 0 0 5.9904-102.0416L665.6 384H256a51.2 51.2 0 0 0-5.9904 102.0416L256 486.4h409.6z"  horiz-adv-x="1024" />

    
    <glyph glyph-name="bda-one-to-one" unicode="&#59099;" d="M870.4 896a153.6 153.6 0 0 0 153.6-153.6v-716.8a153.6 153.6 0 0 0-153.6-153.6H153.6a153.6 153.6 0 0 0-153.6 153.6V742.4a153.6 153.6 0 0 0 153.6 153.6z m0-102.4H153.6a51.2 51.2 0 0 1-51.2-51.2v-716.8a51.2 51.2 0 0 1 51.2-51.2h716.8a51.2 51.2 0 0 1 51.2 51.2V742.4a51.2 51.2 0 0 1-51.2 51.2zM307.2 644.608a51.2 51.2 0 0 0 50.8416-45.1584L358.4 593.408v-418.9184a51.2 51.2 0 0 0-102.0416-5.9904L256 174.59199999999998V593.4592a51.2 51.2 0 0 0 51.2 51.2z m409.6 0a51.2 51.2 0 0 0 50.8416-45.1584L768 593.408v-418.9184a51.2 51.2 0 0 0-102.0416-5.9904L665.6 174.59199999999998V593.4592a51.2 51.2 0 0 0 51.2 51.2zM512 281.6a51.2 51.2 0 1 0 0-102.4 51.2 51.2 0 0 0 0 102.4z m0 307.2a51.2 51.2 0 1 0 0-102.4 51.2 51.2 0 0 0 0 102.4z"  horiz-adv-x="1024" />

    
    <glyph glyph-name="bda-fullscreen2" unicode="&#59100;" d="M870.4 896a153.6 153.6 0 0 0 153.6-153.6v-716.8a153.6 153.6 0 0 0-153.6-153.6H153.6a153.6 153.6 0 0 0-153.6 153.6V742.4a153.6 153.6 0 0 0 153.6 153.6z m0-102.4H153.6a51.2 51.2 0 0 1-51.2-51.2v-716.8a51.2 51.2 0 0 1 51.2-51.2h716.8a51.2 51.2 0 0 1 51.2 51.2V742.4a51.2 51.2 0 0 1-51.2 51.2zM256 332.79999999999995a51.2 51.2 0 0 0 50.8416-45.2096L307.2 281.6v-102.4h102.4a51.2 51.2 0 0 0 5.9904-102.0416L409.6 76.79999999999995H307.2a102.4 102.4 0 0 0-102.144 94.72L204.8 179.20000000000005v102.4a51.2 51.2 0 0 0 51.2 51.2z m512 0a51.2 51.2 0 0 0 50.8416-45.2096L819.2 281.6v-102.4a102.4 102.4 0 0 0-94.72-102.144L716.8 76.79999999999995h-102.4a51.2 51.2 0 0 0-5.9904 102.0416L614.4 179.20000000000005h102.4v102.4a51.2 51.2 0 0 0 51.2 51.2zM409.6 691.2a51.2 51.2 0 0 0 5.9904-102.0416L409.6 588.8H307.2v-102.4a51.2 51.2 0 0 0-102.0416-5.9904L204.8 486.4V588.8a102.4 102.4 0 0 0 94.72 102.144L307.2 691.2h102.4z m307.2 0a102.4 102.4 0 0 0 102.144-94.72L819.2 588.8v-102.4a51.2 51.2 0 0 0-102.0416-5.9904L716.8 486.4V588.8h-102.4a51.2 51.2 0 0 0-5.9904 102.0416L614.4 691.2h102.4z"  horiz-adv-x="1024" />

    
    <glyph glyph-name="bda-exit-fullscreen2" unicode="&#59102;" d="M870.4 896a153.6 153.6 0 0 0 153.6-153.6v-716.8a153.6 153.6 0 0 0-153.6-153.6H153.6a153.6 153.6 0 0 0-153.6 153.6V742.4a153.6 153.6 0 0 0 153.6 153.6z m0-102.4H153.6a51.2 51.2 0 0 1-51.2-51.2v-716.8a51.2 51.2 0 0 1 51.2-51.2h716.8a51.2 51.2 0 0 1 51.2 51.2V742.4a51.2 51.2 0 0 1-51.2 51.2zM307.2 281.6a102.4 102.4 0 0 0 102.144-94.72L409.6 179.20000000000005v-102.4a51.2 51.2 0 0 0-102.0416-5.9904L307.2 76.79999999999995v102.4H204.8a51.2 51.2 0 0 0-5.9904 102.0416L204.8 281.6h102.4z m512 0a51.2 51.2 0 0 0 5.9904-102.0416L819.2 179.20000000000005h-102.4v-102.4a51.2 51.2 0 0 0-102.0416-5.9904L614.4 76.79999999999995v102.4a102.4 102.4 0 0 0 94.72 102.144L716.8 281.6h102.4zM358.4 742.4a51.2 51.2 0 0 0 50.8416-45.2096L409.6 691.2v-102.4a102.4 102.4 0 0 0-94.72-102.144L307.2 486.4H204.8a51.2 51.2 0 0 0-5.9904 102.0416L204.8 588.8h102.4V691.2a51.2 51.2 0 0 0 51.2 51.2z m307.2 0a51.2 51.2 0 0 0 50.8416-45.2096L716.8 691.2v-102.4h102.4a51.2 51.2 0 0 0 5.9904-102.0416L819.2 486.4h-102.4a102.4 102.4 0 0 0-102.144 94.72L614.4 588.8V691.2a51.2 51.2 0 0 0 51.2 51.2z"  horiz-adv-x="1024" />

    
    <glyph glyph-name="bda-arrow-right-small" unicode="&#58930;" d="M450.901333 675.072l5.973334-4.864 256-256a42.666667 42.666667 0 0 0 4.864-54.442667l-4.864-5.973333-256-256a42.666667 42.666667 0 0 0-65.28 54.442667l4.864 5.973333L622.336 384 396.458667 609.7919999999999a42.666667 42.666667 0 0 0 54.442666 65.28z"  horiz-adv-x="1024" />

    
    <glyph glyph-name="bda-arrow-top-small" unicode="&#58934;" d="M536.234667 589.7386670000001l5.973333-4.864 256-256a42.666667 42.666667 0 0 0-54.442667-65.28l-5.973333 4.864L512 494.336 286.208 268.458667a42.666667 42.666667 0 0 0-65.28 54.442666l4.864 5.973334 256 256a42.496 42.496 0 0 0 26.538667 12.288h7.338666a42.496 42.496 0 0 0 20.565334-7.424z"  horiz-adv-x="1024" />

    
    <glyph glyph-name="bda-arrow-bottom-small" unicode="&#58935;" d="M280.234667 504.405333l5.973333-4.864L512 273.664l225.792 225.877333a42.666667 42.666667 0 0 0 65.28-54.442666l-4.864-5.973334-256-256a42.496 42.496 0 0 0-19.370667-11.093333l-7.168-1.194667h-7.338666a42.496 42.496 0 0 0-20.565334 7.424l-5.973333 4.864-256 256a42.666667 42.666667 0 0 0 54.442667 65.28z"  horiz-adv-x="1024" />

    
    <glyph glyph-name="bda-arrow-left-small" unicode="&#58936;" d="M627.541333 670.208a42.666667 42.666667 0 0 0 4.864-54.442667l-4.864-5.973333L401.664 384l225.877333-225.792a42.666667 42.666667 0 0 0-54.442666-65.28l-5.973334 4.864-256 256a42.666667 42.666667 0 0 0 0 60.416l256 256a42.666667 42.666667 0 0 0 60.416 0z"  horiz-adv-x="1024" />

    
    <glyph glyph-name="bda-arrow-bottom" unicode="&#58937;" d="M958.122667 579.669333a42.666667 42.666667 0 0 0 4.949333-54.442666l-4.949333-5.973334-413.525334-413.696a42.496 42.496 0 0 0-64.170666-19.968l-5.973334 4.949334L52.053333 512.853333a42.666667 42.666667 0 0 0 54.528 65.194667l5.888-4.864 389.376-389.461333 395.946667 395.861333a42.666667 42.666667 0 0 0 60.330667 0z"  horiz-adv-x="1024" />

    
    <glyph glyph-name="bda-arrow-right" unicode="&#58938;" d="M365.568 845.738667l5.973333-4.864 422.4-422.4a42.666667 42.666667 0 0 0 4.864-54.442667l-4.949333-5.973333-422.4-422.314667a42.666667 42.666667 0 0 0-65.194667 54.442667l4.864 5.973333L703.317333 388.266667 311.125333 780.458667a42.666667 42.666667 0 0 0 54.442667 65.28z"  horiz-adv-x="1024" />

    
    <glyph glyph-name="bda-arrow-top" unicode="&#58939;" d="M537.173333 665.6l5.888-4.864 422.4-422.4a42.666667 42.666667 0 0 0-54.442666-65.28l-5.973334 4.949333L512.853333 570.1973330000001 120.661333 178.00533299999995a42.666667 42.666667 0 0 0-65.28 54.442667l4.949334 5.888 422.4 422.4a42.496 42.496 0 0 0 26.453333 12.288h7.338667a42.496 42.496 0 0 0 20.650666-7.424z"  horiz-adv-x="1024" />

    
    <glyph glyph-name="bda-arrow-left" unicode="&#58940;" d="M708.522667 840.874667a42.666667 42.666667 0 0 0 4.949333-54.442667l-4.949333-5.973333-392.192-392.106667 392.192-392.277333a42.666667 42.666667 0 0 0-54.442667-65.28l-5.888 4.949333-422.4 422.4a42.666667 42.666667 0 0 0 0 60.330667l422.4 422.4a42.666667 42.666667 0 0 0 60.330667 0z"  horiz-adv-x="1024" />

    
    <glyph glyph-name="bda-menu-expand" unicode="&#58931;" d="M64 832a64 64 0 0 0 63.552-56.512L128 768v-768a64 64 0 0 0-127.552-7.488L0 0V768a64 64 0 0 0 64 64z m483.2-10.56l6.4-4.864 448-384 0.832-0.64c0.96-0.896 1.92-1.728 2.816-2.688l-3.584 3.328c2.24-1.92 4.352-3.968 6.272-6.144l0.64-0.768 2.112-2.56a63.552 63.552 0 0 0 2.24-3.136l-4.352 5.696a64.448 64.448 0 0 0 14.912-49.856 111.744 111.744 0 0 0-1.408-7.36 100.032 100.032 0 0 0-2.112-6.848 68.928 68.928 0 0 0-9.28-16.64c-0.64-0.896-1.344-1.792-2.112-2.56l-0.64-0.832a63.872 63.872 0 0 0-0.512-0.576l-2.304-2.112-2.112-2.304a64 64 0 0 0-0.576-0.512l-0.768-0.64-448-384a64 64 0 0 0-89.088 91.52l5.76 5.632L861.632 384 470.336 719.36A64 64 0 0 0 547.2 821.504z"  horiz-adv-x="1024" />

    
    <glyph glyph-name="bda-menu-shrink" unicode="&#58932;" d="M960.46144 832a64 64 0 0 0 63.552-56.512L1024.46144 768v-768a64 64 0 0 0-127.552-7.488L896.46144 0V768a64 64 0 0 0 64 64z m-399.36-22.4a64 64 0 0 0-1.216-84.608l-5.76-5.568L162.76544 384l391.36-335.36 5.76-5.632a64 64 0 0 0-89.088-91.584l-448 384-0.768 0.64a64.192 64.192 0 0 0-2.816 2.688L17.10144 340.99199999999996a64 64 0 0 0-0.512 0.576l-0.64 0.768-2.112 2.56a63.552 63.552 0 0 0-2.24 3.136l4.352-5.696a64.448 64.448 0 0 0-14.912 49.856 111.68 111.68 0 0 0 1.408 7.36 100.032 100.032 0 0 0 2.112 6.848 68.928 68.928 0 0 0 5.12 10.688c1.856 2.944 3.904 5.824 6.272 8.576l-4.352-5.696a63.552 63.552 0 0 0 2.24 3.136l2.112 2.56a65.28 65.28 0 0 0 1.152 1.28l2.176 2.304c0.896 0.96 1.856 1.792 2.816 2.688l0.768 0.64 448 384a64 64 0 0 0 90.24-6.912z"  horiz-adv-x="1024" />

    
    </font>
</defs>
</svg>
